STARTFONT 2.1
FONT -HP-Batang-Medium-R-Normal--32-320-75-75-C-160-KSC5636.1989-0
SIZE 32 75 75
FONTBOUNDINGBOX 16 32 0 -2

STARTPROPERTIES 23
FONTNAME_REGISTRY ""
FOUNDRY "HP"
FAMILY_NAME "Batang"
WEIGHT_NAME "Medium"
SLANT "R"
SETWIDTH_NAME "Normal"
ADD_STYLE_NAME ""
PIXEL_SIZE 32
POINT_SIZE 320
RESOLUTION_X 75
RESOLUTION_Y 75
SPACING "C"
AVERAGE_WIDTH 160
CHARSET_REGISTRY "KSC5636.1989"
CHARSET_ENCODING "0"
COPYRIGHT "Copyright (c) 1994 Samsung Hewlett-Packard Company."
WEIGHT 160
X_HEIGHT 30
QUAD_WIDTH 16
_HP_ASXVERSION "@(#) ASX 3.00 $Revision: 13.9 $ bat32a"
DEFAULT_CHAR 32
FONT_DESCENT 2
FONT_ASCENT 30
ENDPROPERTIES

CHARS 256

STARTCHAR CODE000
ENCODING 0
SWIDTH 451 0
DWIDTH 16 0
BBX 16 32 0 -2
BITMAP
0000
0000
0000
0000
0000
0000
0000
0000
0000
0000
0000
0000
0000
0000
0000
0000
0000
0000
0000
0000
0000
0000
0000
0000
0000
0000
0000
0000
0000
0000
0000
0000
ENDCHAR

STARTCHAR CODE001
ENCODING 1
SWIDTH 451 0
DWIDTH 16 0
BBX 16 32 0 -2
BITMAP
0000
0000
0000
03C0
0FF0
1E78
381C
700E
6006
EC37
DE7B
DE7B
CC33
C003
C003
C003
D81B
D81B
DC3B
EFF7
67E6
700E
381C
1E78
0FF0
03C0
0000
0000
0000
0000
0000
0000
ENDCHAR

STARTCHAR CODE002
ENCODING 2
SWIDTH 451 0
DWIDTH 16 0
BBX 16 32 0 -2
BITMAP
0000
0000
0000
03C0
0FF0
1FF8
3FFC
3FFC
7FFE
73CE
6186
E187
F3CF
FFFF
FFFF
FFFF
FFFF
EFF7
6FF6
77EE
7BDE
3C3C
3FFC
1FF8
0FF0
03C0
0000
0000
0000
0000
0000
0000
ENDCHAR

STARTCHAR CODE003
ENCODING 3
SWIDTH 451 0
DWIDTH 16 0
BBX 16 32 0 -2
BITMAP
0000
0000
0E38
1F7C
3F7E
3FFE
7FFF
7FFF
7FFF
7FFF
7FFF
7FFF
3FFE
3FFE
3FFE
1FFC
1FFC
1FFC
0FF8
0FF8
07F0
07F0
07F0
03E0
03E0
01C0
01C0
0080
0000
0000
0000
0000
ENDCHAR

STARTCHAR CODE004
ENCODING 4
SWIDTH 451 0
DWIDTH 16 0
BBX 16 32 0 -2
BITMAP
0000
0080
0080
01C0
01C0
03E0
03E0
07F0
07F0
0FF8
0FF8
1FFC
1FFC
3FFE
3FFE
7FFF
3FFE
3FFE
1FFC
1FFC
0FF8
0FF8
07F0
07F0
03E0
03E0
01C0
01C0
0080
0080
0000
0000
ENDCHAR

STARTCHAR CODE005
ENCODING 5
SWIDTH 451 0
DWIDTH 16 0
BBX 16 32 0 -2
BITMAP
0000
0000
0180
07E0
07E0
0FF0
0FF0
0FF0
0FF0
0FF0
07E0
07E0
3BDC
7FFE
7FFE
FFFF
FFFF
FFFF
FFFF
FFFF
7FFE
7DBE
399C
0180
0180
0180
03C0
0FF0
0FF0
0000
0000
0000
ENDCHAR

STARTCHAR CODE006
ENCODING 6
SWIDTH 451 0
DWIDTH 16 0
BBX 16 32 0 -2
BITMAP
0000
0000
0180
0180
03C0
03C0
07E0
07E0
0FF0
0FF0
1FF8
1FF8
3FFC
3FFC
7FFE
7FFE
7FFE
FFFF
FFFF
FFFF
FFFF
FFFF
7DBE
399C
0180
0180
0180
03C0
0FF0
0FF0
0000
0000
ENDCHAR

STARTCHAR CODE007
ENCODING 7
SWIDTH 451 0
DWIDTH 16 0
BBX 16 32 0 -2
BITMAP
0000
0000
0000
0000
0000
0000
0000
0000
0000
01C0
07F0
0FF8
1FFC
1FFC
3FFE
3FFE
3FFE
1FFC
1FFC
0FF8
07F0
01C0
0000
0000
0000
0000
0000
0000
0000
0000
0000
0000
ENDCHAR

STARTCHAR CODE008
ENCODING 8
SWIDTH 451 0
DWIDTH 16 0
BBX 16 32 0 -2
BITMAP
0000
0000
0000
0000
FFFF
FFFF
FFFF
FFFF
FFFF
FFFF
FC3F
F00F
E007
E007
C003
C003
C003
C003
E007
E007
F00F
FC3F
FFFF
FFFF
FFFF
FFFF
FFFF
FFFF
0000
0000
0000
0000
ENDCHAR

STARTCHAR CODE009
ENCODING 9
SWIDTH 451 0
DWIDTH 16 0
BBX 16 32 0 -2
BITMAP
0000
0000
0000
0000
0000
0000
0000
0000
0000
0000
0000
03E0
0FF8
0E38
1C1C
180C
180C
180C
1C1C
0E38
0FF8
03E0
0000
0000
0000
0000
0000
0000
0000
0000
0000
0000
ENDCHAR

STARTCHAR CODE010
ENCODING 10
SWIDTH 451 0
DWIDTH 16 0
BBX 16 32 0 -2
BITMAP
0000
0000
0000
0000
FFFF
FFFF
FFFF
FFFF
FFFF
FFFF
FFFF
FC3F
F00F
F18F
E3C7
E7E7
E7E7
E3C7
F18F
F00F
FC3F
FFFF
FFFF
FFFF
FFFF
FFFF
FFFF
FFFF
0000
0000
0000
0000
ENDCHAR

STARTCHAR CODE011
ENCODING 11
SWIDTH 451 0
DWIDTH 16 0
BBX 16 32 0 -2
BITMAP
0000
0000
0000
0000
0000
007F
007F
000F
000F
000F
001B
001B
001B
0030
0030
0F60
3FE0
79E0
6060
E070
C030
C030
E070
6060
79E0
3FC0
0F80
0000
0000
0000
0000
0000
ENDCHAR

STARTCHAR CODE012
ENCODING 12
SWIDTH 451 0
DWIDTH 16 0
BBX 16 32 0 -2
BITMAP
0000
0000
07E0
1FF8
3C3C
300C
700E
6006
6006
6006
700E
300C
3C3C
1FF8
07E0
0180
0180
0180
7FFE
7FFE
0180
0180
0180
0180
0180
0180
0180
0180
0180
0180
0000
0000
ENDCHAR

STARTCHAR CODE013
ENCODING 13
SWIDTH 451 0
DWIDTH 16 0
BBX 16 32 0 -2
BITMAP
0000
0000
0400
0600
0700
0780
07C0
07E0
06F0
0678
063C
061E
060E
0607
0603
0603
0603
0606
0606
060C
0608
0610
0620
0600
1E00
3E00
7C00
7C00
3800
0000
0000
0000
ENDCHAR

STARTCHAR CODE014
ENCODING 14
SWIDTH 451 0
DWIDTH 16 0
BBX 16 32 0 -2
BITMAP
0000
0000
0000
0007
003F
01FF
0FE3
0F03
0C0F
0C3F
0DFB
0FE3
0F03
0C03
0C03
0C03
0C03
0C03
0C03
0C03
0C0F
0C1F
0C3E
3C3E
7C3C
F818
F800
F000
6000
0000
0000
0000
ENDCHAR

STARTCHAR CODE015
ENCODING 15
SWIDTH 451 0
DWIDTH 16 0
BBX 16 32 0 -2
BITMAP
0000
0000
0000
0000
0000
0180
0180
0180
8181
C7E3
FFFF
7C3E
300C
700E
6006
6006
E007
E007
6006
700E
700E
FC3F
DFFB
87E1
0180
0180
0180
0180
0000
0000
0000
0000
ENDCHAR

STARTCHAR CODE016
ENCODING 16
SWIDTH 451 0
DWIDTH 16 0
BBX 16 32 0 -2
BITMAP
0000
0000
8000
C000
E000
F000
F800
FC00
FE00
FF00
FF80
FFC0
FFE0
FFF0
FFF8
FFFC
FFFC
FFF8
FFF0
FFE0
FFC0
FF80
FF00
FE00
FC00
F800
F000
E000
C000
8000
0000
0000
ENDCHAR

STARTCHAR CODE017
ENCODING 17
SWIDTH 451 0
DWIDTH 16 0
BBX 16 32 0 -2
BITMAP
0000
0000
0001
0003
0007
000F
001F
003F
007F
00FF
01FF
03FF
07FF
0FFF
1FFF
3FFF
3FFF
1FFF
0FFF
07FF
03FF
01FF
00FF
007F
003F
001F
000F
0007
0003
0001
0000
0000
ENDCHAR

STARTCHAR CODE018
ENCODING 18
SWIDTH 451 0
DWIDTH 16 0
BBX 16 32 0 -2
BITMAP
0000
0000
0180
03C0
07E0
0FF0
1998
2184
0180
0180
0180
0180
0180
0180
0180
0180
0180
0180
0180
0180
0180
0180
0180
0180
2184
1998
0FF0
07E0
03C0
0180
0000
0000
ENDCHAR

STARTCHAR CODE019
ENCODING 19
SWIDTH 451 0
DWIDTH 16 0
BBX 16 32 0 -2
BITMAP
0000
0000
0000
0C30
0C30
0C30
0C30
0C30
0C30
0C30
0C30
0C30
0C30
0C30
0C30
0C30
0C30
0C30
0C30
0C30
0000
0000
0000
0C30
1E78
1E78
0C30
0000
0000
0000
0000
0000
ENDCHAR

STARTCHAR CODE020
ENCODING 20
SWIDTH 451 0
DWIDTH 16 0
BBX 16 32 0 -2
BITMAP
0000
0000
0FFE
3FFE
78C6
E0C6
E0C6
C0C6
C0C6
C0C6
E0C6
E0C6
78C6
3FC6
0FC6
00C6
00C6
00C6
00C6
00C6
00C6
00C6
00C6
00C6
00C6
00C6
00C6
00C6
00C6
00C6
0000
0000
ENDCHAR

STARTCHAR CODE021
ENCODING 21
SWIDTH 451 0
DWIDTH 16 0
BBX 16 32 0 -2
BITMAP
0000
0000
000C
07CC
1FFC
383C
700E
7006
6006
7386
3FE0
3C70
1E30
1FB0
1BF0
19F0
1C78
0FFC
039C
000E
600E
6006
600E
700E
3C3C
3FF8
33E0
3000
0000
0000
0000
0000
ENDCHAR

STARTCHAR CODE022
ENCODING 22
SWIDTH 451 0
DWIDTH 16 0
BBX 16 32 0 -2
BITMAP
0000
0000
0000
0000
0000
0000
0000
0000
0000
0000
FFFF
FFFF
FFFF
FFFF
FFFF
FFFF
FFFF
FFFF
FFFF
FFFF
FFFF
FFFF
0000
0000
0000
0000
0000
0000
0000
0000
0000
0000
ENDCHAR

STARTCHAR CODE023
ENCODING 23
SWIDTH 451 0
DWIDTH 16 0
BBX 16 32 0 -2
BITMAP
0000
0000
0180
03C0
07E0
0FF0
1998
2184
0180
0180
0180
0180
0180
0180
0180
0180
0180
0180
0180
0180
0180
0180
1188
0DB0
07E0
03C0
0180
0000
FFFF
FFFF
0000
0000
ENDCHAR

STARTCHAR CODE024
ENCODING 24
SWIDTH 451 0
DWIDTH 16 0
BBX 16 32 0 -2
BITMAP
0000
0000
0180
03C0
07E0
0FF0
1998
2184
0180
0180
0180
0180
0180
0180
0180
0180
0180
0180
0180
0180
0180
0180
0180
0180
0180
0180
0180
0180
0180
0180
0000
0000
ENDCHAR

STARTCHAR CODE025
ENCODING 25
SWIDTH 451 0
DWIDTH 16 0
BBX 16 32 0 -2
BITMAP
0000
0000
0180
0180
0180
0180
0180
0180
0180
0180
0180
0180
0180
0180
0180
0180
0180
0180
0180
0180
0180
0180
0180
0180
2184
1998
0FF0
07E0
03C0
0180
0000
0000
ENDCHAR

STARTCHAR CODE026
ENCODING 26
SWIDTH 451 0
DWIDTH 16 0
BBX 16 32 0 -2
BITMAP
0000
0000
0000
0000
0000
0000
0000
0000
0000
0000
0000
0020
0010
0018
000C
7FFE
7FFE
000C
0018
0010
0020
0000
0000
0000
0000
0000
0000
0000
0000
0000
0000
0000
ENDCHAR

STARTCHAR CODE027
ENCODING 27
SWIDTH 451 0
DWIDTH 16 0
BBX 16 32 0 -2
BITMAP
0000
0000
0000
0000
0000
0000
0000
0000
0000
0000
0000
0400
0800
1800
3000
7FFE
7FFE
3000
1800
0800
0400
0000
0000
0000
0000
0000
0000
0000
0000
0000
0000
0000
ENDCHAR

STARTCHAR CODE028
ENCODING 28
SWIDTH 451 0
DWIDTH 16 0
BBX 16 32 0 -2
BITMAP
0000
0000
0000
0000
0000
0000
0000
0000
0000
6000
6000
6000
6000
6000
6000
6000
6000
6000
6000
6000
6000
6000
7FFE
7FFE
0000
0000
0000
0000
0000
0000
0000
0000
ENDCHAR

STARTCHAR CODE029
ENCODING 29
SWIDTH 451 0
DWIDTH 16 0
BBX 16 32 0 -2
BITMAP
0000
0000
0000
0000
0000
0000
0000
0000
0000
0000
0000
0000
0810
1008
300C
7FFE
7FFE
300C
1008
0810
0000
0000
0000
0000
0000
0000
0000
0000
0000
0000
0000
0000
ENDCHAR

STARTCHAR CODE030
ENCODING 30
SWIDTH 451 0
DWIDTH 16 0
BBX 16 32 0 -2
BITMAP
0000
0000
0000
0000
0080
0080
01C0
01C0
01C0
03E0
03E0
03E0
07F0
07F0
07F0
0FF8
0FF8
0FF8
1FFC
1FFC
1FFC
3FFE
3FFE
3FFE
7FFF
0000
0000
0000
0000
0000
0000
0000
ENDCHAR

STARTCHAR CODE031
ENCODING 31
SWIDTH 451 0
DWIDTH 16 0
BBX 16 32 0 -2
BITMAP
0000
0000
0000
0000
0000
0000
7FFF
3FFE
3FFE
3FFE
1FFC
1FFC
1FFC
0FF8
0FF8
0FF8
07F0
07F0
07F0
03E0
03E0
03E0
01C0
01C0
01C0
0080
0080
0000
0000
0000
0000
0000
ENDCHAR

STARTCHAR 0x20
ENCODING 32
SWIDTH 451 0
DWIDTH 16 0
BBX 16 32 0 -2
BITMAP
0000
0000
0000
0000
0000
0000
0000
0000
0000
0000
0000
0000
0000
0000
0000
0000
0000
0000
0000
0000
0000
0000
0000
0000
0000
0000
0000
0000
0000
0000
0000
0000
ENDCHAR

STARTCHAR !
ENCODING 33
SWIDTH 451 0
DWIDTH 16 0
BBX 16 32 0 -2
BITMAP
0000
0000
0000
0000
0100
0380
0380
0380
0380
0380
0380
0380
0380
0380
0380
0100
0100
0100
0100
0100
0100
0000
0000
0100
0380
0380
0100
0000
0000
0000
0000
0000
ENDCHAR

STARTCHAR "
ENCODING 34
SWIDTH 451 0
DWIDTH 16 0
BBX 16 32 0 -2
BITMAP
0000
0630
0630
0630
0420
0C60
0840
1080
0000
0000
0000
0000
0000
0000
0000
0000
0000
0000
0000
0000
0000
0000
0000
0000
0000
0000
0000
0000
0000
0000
0000
0000
ENDCHAR

STARTCHAR #
ENCODING 35
SWIDTH 451 0
DWIDTH 16 0
BBX 16 32 0 -2
BITMAP
0000
0000
0030
0030
0630
0630
0630
0630
063E
07FE
7FF0
7E30
0630
0630
0630
0630
0630
0630
063E
07FE
7FF0
7E30
0630
0630
0630
0630
0630
0630
0600
0600
0000
0000
ENDCHAR

STARTCHAR $
ENCODING 36
SWIDTH 451 0
DWIDTH 16 0
BBX 16 32 0 -2
BITMAP
0000
0180
0184
07E4
1DBC
118C
3184
3186
3182
3182
3180
1980
1D80
0F80
03C0
01F0
01B8
018C
018C
0186
4186
4186
6186
2186
318C
3D9C
27F0
2180
0180
0180
0000
0000
ENDCHAR

STARTCHAR %
ENCODING 37
SWIDTH 451 0
DWIDTH 16 0
BBX 16 32 0 -2
BITMAP
0000
0000
0000
0000
0000
1C0C
360C
2218
6318
6330
6330
6360
2260
36C0
1CC0
0180
0180
0338
036C
0644
06C6
0CC6
0CC6
18C6
1844
306C
3038
0000
0000
0000
0000
0000
ENDCHAR

STARTCHAR &
ENCODING 38
SWIDTH 451 0
DWIDTH 16 0
BBX 16 32 0 -2
BITMAP
0000
0000
0000
0380
0CC0
0860
1860
1860
1860
18C0
0CC0
0D80
0F00
0600
0C1F
9E04
3A04
3B04
710C
7188
7088
70D8
7070
7072
3832
3C7E
1FCC
0700
0000
0000
0000
0000
ENDCHAR

STARTCHAR '
ENCODING 39
SWIDTH 451 0
DWIDTH 16 0
BBX 16 32 0 -2
BITMAP
0000
0000
0180
03C0
03C0
01C0
0080
0180
0300
0000
0000
0000
0000
0000
0000
0000
0000
0000
0000
0000
0000
0000
0000
0000
0000
0000
0000
0000
0000
0000
0000
0000
ENDCHAR

STARTCHAR (
ENCODING 40
SWIDTH 451 0
DWIDTH 16 0
BBX 16 32 0 -2
BITMAP
0000
0000
0020
0060
00C0
00C0
0180
0180
0180
0300
0300
0300
0300
0300
0300
0300
0300
0300
0300
0300
0300
0300
0300
0180
0180
0180
00C0
00C0
0060
0020
0000
0000
ENDCHAR

STARTCHAR )
ENCODING 41
SWIDTH 451 0
DWIDTH 16 0
BBX 16 32 0 -2
BITMAP
0000
0000
0400
0600
0300
0300
0180
0180
0180
00C0
00C0
00C0
00C0
00C0
00C0
00C0
00C0
00C0
00C0
00C0
00C0
00C0
00C0
00C0
0180
0180
0180
0300
0300
0600
0400
0000
ENDCHAR

STARTCHAR *
ENCODING 42
SWIDTH 451 0
DWIDTH 16 0
BBX 16 32 0 -2
BITMAP
0000
0000
0000
0000
0000
0000
0000
0000
0000
0080
01C0
01C0
0C98
1C9C
06B0
03E0
06B0
1C9C
0C98
01C0
01C0
0080
0000
0000
0000
0000
0000
0000
0000
0000
0000
0000
ENDCHAR

STARTCHAR +
ENCODING 43
SWIDTH 451 0
DWIDTH 16 0
BBX 16 32 0 -2
BITMAP
0000
0000
0000
0000
0000
0000
0000
0000
0180
0180
0180
0180
0180
0180
0180
7FFE
7FFE
0180
0180
0180
0180
0180
0180
0180
0000
0000
0000
0000
0000
0000
0000
0000
ENDCHAR

STARTCHAR ,
ENCODING 44
SWIDTH 451 0
DWIDTH 16 0
BBX 16 32 0 -2
BITMAP
0000
0000
0000
0000
0000
0000
0000
0000
0000
0000
0000
0000
0000
0000
0000
0000
0000
0000
0000
0000
0000
0000
0180
03C0
03C0
01C0
0080
0180
0300
0000
0000
0000
ENDCHAR

STARTCHAR -
ENCODING 45
SWIDTH 451 0
DWIDTH 16 0
BBX 16 32 0 -2
BITMAP
0000
0000
0000
0000
0000
0000
0000
0000
0000
0000
0000
0000
0000
0000
0000
7FFE
7FFE
0000
0000
0000
0000
0000
0000
0000
0000
0000
0000
0000
0000
0000
0000
0000
ENDCHAR

STARTCHAR .
ENCODING 46
SWIDTH 451 0
DWIDTH 16 0
BBX 16 32 0 -2
BITMAP
0000
0000
0000
0000
0000
0000
0000
0000
0000
0000
0000
0000
0000
0000
0000
0000
0000
0000
0000
0000
0000
0000
0180
03C0
0180
0000
0000
0000
0000
0000
0000
0000
ENDCHAR

STARTCHAR /
ENCODING 47
SWIDTH 451 0
DWIDTH 16 0
BBX 16 32 0 -2
BITMAP
0000
0000
0018
0018
0030
0030
0030
0060
0060
0060
00C0
00C0
00C0
0180
0180
0180
0300
0300
0300
0600
0600
0600
0C00
0C00
0C00
1800
1800
1800
3000
3000
0000
0000
ENDCHAR

STARTCHAR 0
ENCODING 48
SWIDTH 451 0
DWIDTH 16 0
BBX 16 32 0 -2
BITMAP
0000
0000
0000
0000
03C0
0C30
1818
1818
300C
300C
300C
300C
300C
300C
300C
300C
300C
300C
300C
300C
300C
300C
300C
300C
1818
1818
0C30
03C0
0000
0000
0000
0000
ENDCHAR

STARTCHAR 1
ENCODING 49
SWIDTH 451 0
DWIDTH 16 0
BBX 16 32 0 -2
BITMAP
0000
0000
0000
0000
0300
0F00
0300
0300
0300
0300
0300
0300
0300
0300
0300
0300
0300
0300
0300
0300
0300
0300
0300
0300
0300
0300
1FE0
0000
0000
0000
0000
0000
ENDCHAR

STARTCHAR 2
ENCODING 50
SWIDTH 451 0
DWIDTH 16 0
BBX 16 32 0 -2
BITMAP
0000
0000
0000
0000
07C0
1830
1010
3018
3018
3818
1018
0018
0030
0030
0060
0060
00C0
0180
0300
0600
0C04
0804
1804
100C
3008
3FF8
3FF8
0000
0000
0000
0000
0000
ENDCHAR

STARTCHAR 3
ENCODING 51
SWIDTH 451 0
DWIDTH 16 0
BBX 16 32 0 -2
BITMAP
0000
0000
0000
0000
07C0
1830
1018
3008
380C
380C
100C
0008
0018
0230
07E0
0218
000C
000C
0006
0006
1006
3806
3806
300C
100C
0C18
03E0
0000
0000
0000
0000
0000
ENDCHAR

STARTCHAR 4
ENCODING 52
SWIDTH 451 0
DWIDTH 16 0
BBX 16 32 0 -2
BITMAP
0000
0000
0000
0000
0060
0060
00E0
00E0
01E0
0160
0360
0260
0660
0460
0C60
0860
1860
1060
3060
2060
6060
7FFE
0060
0060
0060
0060
03FC
0000
0000
0000
0000
0000
ENDCHAR

STARTCHAR 5
ENCODING 53
SWIDTH 451 0
DWIDTH 16 0
BBX 16 32 0 -2
BITMAP
0000
0000
0000
0000
0000
3FF8
3FF8
3000
3000
3000
3000
3000
3000
33C0
3C30
3818
3008
000C
000C
000C
000C
000C
100C
3818
3818
1830
07C0
0000
0000
0000
0000
0000
ENDCHAR

STARTCHAR 6
ENCODING 54
SWIDTH 451 0
DWIDTH 16 0
BBX 16 32 0 -2
BITMAP
0000
0000
0000
0000
01C0
0630
0C18
0818
1818
1000
1000
3000
3000
33C0
3C30
3818
3008
300C
300C
300C
300C
300C
300C
300C
1008
1818
0C30
03C0
0000
0000
0000
0000
ENDCHAR

STARTCHAR 7
ENCODING 55
SWIDTH 451 0
DWIDTH 16 0
BBX 16 32 0 -2
BITMAP
0000
0000
0000
0000
0000
3FFC
3FFC
2004
2008
2018
2010
0030
0020
0060
0060
00C0
00C0
00C0
01C0
0180
0180
0180
0380
0380
0380
0380
0380
0100
0000
0000
0000
0000
ENDCHAR

STARTCHAR 8
ENCODING 56
SWIDTH 451 0
DWIDTH 16 0
BBX 16 32 0 -2
BITMAP
0000
0000
0000
0000
03E0
0E38
180C
1804
3006
3006
3006
1804
1C0C
0F18
03E0
07F0
0C38
180C
100C
3006
3006
3006
3006
3006
180C
180C
0C18
03E0
0000
0000
0000
0000
ENDCHAR

STARTCHAR 9
ENCODING 57
SWIDTH 451 0
DWIDTH 16 0
BBX 16 32 0 -2
BITMAP
0000
0000
0000
0000
03C0
0C30
1818
1018
300C
300C
300C
300C
300C
300C
300C
300C
100C
181C
0C3C
03CC
000C
000C
100C
3818
3818
1C30
07C0
0000
0000
0000
0000
0000
ENDCHAR

STARTCHAR :
ENCODING 58
SWIDTH 451 0
DWIDTH 16 0
BBX 16 32 0 -2
BITMAP
0000
0000
0000
0000
0000
0000
0000
0000
0000
0000
0000
0180
03C0
0180
0000
0000
0000
0000
0000
0000
0000
0000
0180
03C0
0180
0000
0000
0000
0000
0000
0000
0000
ENDCHAR

STARTCHAR ;
ENCODING 59
SWIDTH 451 0
DWIDTH 16 0
BBX 16 32 0 -2
BITMAP
0000
0000
0000
0000
0000
0000
0000
0000
0000
0000
0000
0180
03C0
0180
0000
0000
0000
0000
0000
0000
0000
0000
0180
03C0
01C0
0080
0180
0300
0000
0000
0000
0000
ENDCHAR

STARTCHAR <
ENCODING 60
SWIDTH 451 0
DWIDTH 16 0
BBX 16 32 0 -2
BITMAP
0000
0000
0000
0000
0000
0000
0002
0006
001C
0030
00E0
0180
0700
0C00
3800
6000
6000
3800
0C00
0700
0180
00E0
0030
001C
0006
0002
0000
0000
0000
0000
0000
0000
ENDCHAR

STARTCHAR =
ENCODING 61
SWIDTH 451 0
DWIDTH 16 0
BBX 16 32 0 -2
BITMAP
0000
0000
0000
0000
0000
0000
0000
0000
0000
0000
0000
0000
0000
7FFE
7FFE
0000
0000
0000
7FFE
7FFE
0000
0000
0000
0000
0000
0000
0000
0000
0000
0000
0000
0000
ENDCHAR

STARTCHAR >
ENCODING 62
SWIDTH 451 0
DWIDTH 16 0
BBX 16 32 0 -2
BITMAP
0000
0000
0000
0000
0000
0000
4000
6000
3800
0C00
0700
0180
00E0
0030
001C
0006
0006
001C
0030
00E0
0180
0700
0C00
3800
6000
4000
0000
0000
0000
0000
0000
0000
ENDCHAR

STARTCHAR ?
ENCODING 63
SWIDTH 451 0
DWIDTH 16 0
BBX 16 32 0 -2
BITMAP
0000
0000
0000
0000
0780
1860
3020
3030
0030
0030
0030
0030
0020
0060
0780
0600
0600
0600
0600
0600
0000
0000
0000
0000
0600
0F00
0600
0000
0000
0000
0000
0000
ENDCHAR

STARTCHAR @
ENCODING 64
SWIDTH 451 0
DWIDTH 16 0
BBX 16 32 0 -2
BITMAP
0000
0000
0000
0000
0000
0000
03F0
0C0C
1806
3002
31DB
6333
6633
6633
6C33
6C23
6C23
6C63
6C62
6C46
664C
31F0
3000
1804
0C18
03E0
0000
0000
0000
0000
0000
0000
ENDCHAR

STARTCHAR A
ENCODING 65
SWIDTH 451 0
DWIDTH 16 0
BBX 16 32 0 -2
BITMAP
0000
0000
0000
0180
0180
0180
0180
0380
02C0
02C0
02C0
04C0
04C0
0460
0460
0860
0860
0860
0830
1FF0
1030
1030
1030
2018
2018
2018
FC7F
0000
0000
0000
0000
0000
ENDCHAR

STARTCHAR B
ENCODING 66
SWIDTH 451 0
DWIDTH 16 0
BBX 16 32 0 -2
BITMAP
0000
0000
0000
0000
3FC0
1830
1818
1808
180C
180C
180C
1808
1818
1830
1FE0
1818
180C
180C
1806
1806
1806
1806
1806
180C
180C
1818
3FE0
0000
0000
0000
0000
0000
ENDCHAR

STARTCHAR C
ENCODING 67
SWIDTH 451 0
DWIDTH 16 0
BBX 16 32 0 -2
BITMAP
0000
0000
0000
0000
01E4
061C
0C0C
1806
1802
3002
3000
3000
6000
6000
6000
6000
6000
6000
6000
6000
3002
3002
3002
1806
1804
0C0C
0618
01E0
0000
0000
0000
0000
ENDCHAR

STARTCHAR D
ENCODING 68
SWIDTH 451 0
DWIDTH 16 0
BBX 16 32 0 -2
BITMAP
0000
0000
0000
0000
3FC0
1830
1818
180C
1804
1806
1806
1802
1803
1803
1803
1803
1803
1803
1803
1802
1806
1806
1804
180C
1818
1830
3FC0
0000
0000
0000
0000
0000
ENDCHAR

STARTCHAR E
ENCODING 69
SWIDTH 451 0
DWIDTH 16 0
BBX 16 32 0 -2
BITMAP
0000
0000
0000
0000
3FFC
180C
1804
1806
1802
1802
1800
1820
1820
1820
1FE0
1820
1820
1820
1820
1800
1800
1802
1802
1806
1804
180C
3FFC
0000
0000
0000
0000
0000
ENDCHAR

STARTCHAR F
ENCODING 70
SWIDTH 451 0
DWIDTH 16 0
BBX 16 32 0 -2
BITMAP
0000
0000
0000
0000
3FFE
1806
1802
1803
9801
9801
9800
1800
1820
1820
1820
1FE0
1820
1820
1820
1800
1800
1800
1800
1800
1800
1800
3E00
0000
0000
0000
0000
0000
ENDCHAR

STARTCHAR G
ENCODING 71
SWIDTH 451 0
DWIDTH 16 0
BBX 16 32 0 -2
BITMAP
0000
0000
0000
03E4
0C1C
180C
3004
3006
6002
6002
6000
6000
6000
6000
6000
6000
607F
600C
600C
600C
600C
600C
600C
300C
300C
180C
0C18
03F0
0000
0000
0000
0000
ENDCHAR

STARTCHAR H
ENCODING 72
SWIDTH 451 0
DWIDTH 16 0
BBX 16 32 0 -2
BITMAP
0000
0000
0000
0000
7E3F
180C
180C
180C
180C
180C
180C
180C
180C
180C
1FFC
180C
180C
180C
180C
180C
180C
180C
180C
180C
180C
180C
7E3F
0000
0000
0000
0000
0000
ENDCHAR

STARTCHAR I
ENCODING 73
SWIDTH 451 0
DWIDTH 16 0
BBX 16 32 0 -2
BITMAP
0000
0000
0000
0000
1FE0
0300
0300
0300
0300
0300
0300
0300
0300
0300
0300
0300
0300
0300
0300
0300
0300
0300
0300
0300
0300
0300
1FE0
0000
0000
0000
0000
0000
ENDCHAR

STARTCHAR J
ENCODING 74
SWIDTH 451 0
DWIDTH 16 0
BBX 16 32 0 -2
BITMAP
0000
0000
0000
0000
03FC
0060
0060
0060
0060
0060
0060
0060
0060
0060
0060
0060
0060
0060
0060
0060
0060
0060
0060
0060
0060
0060
1060
3860
3840
18C0
0700
0000
ENDCHAR

STARTCHAR K
ENCODING 75
SWIDTH 451 0
DWIDTH 16 0
BBX 16 32 0 -2
BITMAP
0000
0000
0000
0000
7E1F
1804
1808
1818
1810
1830
1860
1840
18C0
19C0
1960
1B60
1E60
1C30
1830
1830
1818
1818
1818
180C
180C
180C
7E3F
0000
0000
0000
0000
0000
ENDCHAR

STARTCHAR L
ENCODING 76
SWIDTH 451 0
DWIDTH 16 0
BBX 16 32 0 -2
BITMAP
0000
0000
0000
0000
7E00
1800
1800
1800
1800
1800
1800
1800
1800
1800
1800
1800
1800
1800
1800
1800
1800
1802
1802
1806
1804
180C
7FFC
0000
0000
0000
0000
0000
ENDCHAR

STARTCHAR M
ENCODING 77
SWIDTH 451 0
DWIDTH 16 0
BBX 16 32 0 -2
BITMAP
0000
0000
0000
0000
F00F
300C
300C
301C
381C
381C
381C
383C
2C2C
2C2C
2C2C
2C6C
2C4C
264C
264C
26CC
268C
268C
238C
238C
230C
230C
F33F
0000
0000
0000
0000
0000
ENDCHAR

STARTCHAR N
ENCODING 78
SWIDTH 451 0
DWIDTH 16 0
BBX 16 32 0 -2
BITMAP
0000
0000
0000
0000
703E
1808
1808
1C08
1C08
1E08
1608
1708
1308
1388
1188
11C8
10C8
10E8
1068
1078
1038
1038
1018
1018
1008
1008
7C08
0000
0000
0000
0000
0000
ENDCHAR

STARTCHAR O
ENCODING 79
SWIDTH 451 0
DWIDTH 16 0
BBX 16 32 0 -2
BITMAP
0000
0000
0000
0380
0C60
1830
3018
3018
600C
600C
600C
600C
600C
600C
600C
600C
600C
600C
600C
600C
600C
600C
3018
3018
1830
0C60
0380
0000
0000
0000
0000
0000
ENDCHAR

STARTCHAR P
ENCODING 80
SWIDTH 451 0
DWIDTH 16 0
BBX 16 32 0 -2
BITMAP
0000
0000
0000
0000
7FE0
1818
180C
180C
1806
1806
1806
1806
1806
180C
180C
1818
1FE0
1800
1800
1800
1800
1800
1800
1800
1800
1800
7F00
0000
0000
0000
0000
0000
ENDCHAR

STARTCHAR Q
ENCODING 81
SWIDTH 451 0
DWIDTH 16 0
BBX 16 32 0 -2
BITMAP
0000
0000
0000
0380
0C60
1830
3018
3018
600C
600C
600C
600C
600C
600C
600C
600C
600C
600C
600C
600C
638C
644C
3458
3458
1C70
0C60
03E0
0062
0022
0022
001C
0000
ENDCHAR

STARTCHAR R
ENCODING 82
SWIDTH 451 0
DWIDTH 16 0
BBX 16 32 0 -2
BITMAP
0000
0000
0000
0000
7FE0
3018
300C
3004
3006
3006
3006
3006
3004
300C
3018
3FE0
3180
3080
30C0
3040
3060
3020
3030
3010
3018
3008
7C0F
8000
0000
0000
0000
0000
ENDCHAR

STARTCHAR S
ENCODING 83
SWIDTH 451 0
DWIDTH 16 0
BBX 16 32 0 -2
BITMAP
0000
0000
0000
07C8
1838
3018
3008
600C
6004
6000
6000
3000
3800
1F00
07C0
00F0
0038
0018
001C
000C
400C
400C
400C
600C
2018
3018
3830
27C0
0000
0000
0000
0000
ENDCHAR

STARTCHAR T
ENCODING 84
SWIDTH 451 0
DWIDTH 16 0
BBX 16 32 0 -2
BITMAP
0000
0000
0000
0000
7FFE
6186
C183
8183
8181
0181
0180
0180
0180
0180
0180
0180
0180
0180
0180
0180
0180
0180
0180
0180
0180
0180
07E0
0000
0000
0000
0000
0000
ENDCHAR

STARTCHAR U
ENCODING 85
SWIDTH 451 0
DWIDTH 16 0
BBX 16 32 0 -2
BITMAP
0000
0000
0000
0000
7C0F
B002
3002
3002
3002
3002
3002
3002
3002
3002
3002
3002
3002
3002
3002
3002
3002
3002
3002
3002
1806
1804
0E1C
03F0
0000
0000
0000
0000
ENDCHAR

STARTCHAR V
ENCODING 86
SWIDTH 451 0
DWIDTH 16 0
BBX 16 32 0 -2
BITMAP
0000
0000
0000
0000
FC1F
3004
3004
3004
300C
1808
1808
1808
1818
0C10
0C10
0C10
0C30
0620
0620
0620
0660
0340
0340
0340
03C0
0180
0180
0180
0000
0000
0000
0000
ENDCHAR

STARTCHAR W
ENCODING 87
SWIDTH 451 0
DWIDTH 16 0
BBX 16 32 0 -2
BITMAP
0000
0000
0000
0000
79E7
30C2
30C2
30C2
30C2
30C2
31C6
3164
1964
1964
1964
1B6C
1A68
1A68
1A68
1A68
0E78
0C30
0C30
0C30
0C30
0C30
0C30
0C30
0000
0000
0000
0000
ENDCHAR

STARTCHAR X
ENCODING 88
SWIDTH 451 0
DWIDTH 16 0
BBX 16 32 0 -2
BITMAP
0000
0000
0000
0000
7E3F
3004
1808
1808
0C10
0C10
0620
0620
0340
0340
0180
0180
01C0
01C0
0260
0260
0430
0430
0818
0818
100C
100C
7E3F
0000
0000
0000
0000
0000
ENDCHAR

STARTCHAR Y
ENCODING 89
SWIDTH 451 0
DWIDTH 16 0
BBX 16 32 0 -2
BITMAP
0000
0000
0000
0000
FC3E
3008
3008
1818
1810
1830
0C20
0C60
0C40
06C0
0680
0780
0300
0300
0300
0300
0300
0300
0300
0300
0300
0300
0FC0
0000
0000
0000
0000
0000
ENDCHAR

STARTCHAR Z
ENCODING 90
SWIDTH 451 0
DWIDTH 16 0
BBX 16 32 0 -2
BITMAP
0000
0000
0000
0000
1FFC
180C
1018
3018
2030
2030
0060
0060
00C0
00C0
0180
0180
0300
0300
0600
0600
0C00
0C00
1802
1802
3006
3004
600C
7FFC
0000
0000
0000
0000
ENDCHAR

STARTCHAR [
ENCODING 91
SWIDTH 451 0
DWIDTH 16 0
BBX 16 32 0 -2
BITMAP
0000
0000
03F0
0300
0300
0300
0300
0300
0300
0300
0300
0300
0300
0300
0300
0300
0300
0300
0300
0300
0300
0300
0300
0300
0300
0300
0300
0300
0300
0300
03F0
0000
ENDCHAR

STARTCHAR \
ENCODING 92
SWIDTH 451 0
DWIDTH 16 0
BBX 16 32 0 -2
BITMAP
0000
0000
0000
0000
79E7
30C2
30C2
30C2
30C2
30C2
FFFF
FFFF
1964
1964
1964
1B6C
FFFF
FFFF
1A68
1A68
0E78
0C30
0C30
0C30
0C30
0C30
0C30
0C30
0000
0000
0000
0000
ENDCHAR

STARTCHAR ]
ENCODING 93
SWIDTH 451 0
DWIDTH 16 0
BBX 16 32 0 -2
BITMAP
0000
0000
1F80
0180
0180
0180
0180
0180
0180
0180
0180
0180
0180
0180
0180
0180
0180
0180
0180
0180
0180
0180
0180
0180
0180
0180
0180
0180
0180
0180
1F80
0000
ENDCHAR

STARTCHAR ^
ENCODING 94
SWIDTH 451 0
DWIDTH 16 0
BBX 16 32 0 -2
BITMAP
0000
0000
0180
0180
03C0
03C0
0660
0660
0C30
0C30
1818
1818
300C
0000
0000
0000
0000
0000
0000
0000
0000
0000
0000
0000
0000
0000
0000
0000
0000
0000
0000
0000
ENDCHAR

STARTCHAR _
ENCODING 95
SWIDTH 451 0
DWIDTH 16 0
BBX 16 32 0 -2
BITMAP
0000
0000
0000
0000
0000
0000
0000
0000
0000
0000
0000
0000
0000
0000
0000
0000
0000
0000
0000
0000
0000
0000
0000
0000
0000
0000
0000
0000
3FFE
3FFE
0000
0000
ENDCHAR

STARTCHAR `
ENCODING 96
SWIDTH 451 0
DWIDTH 16 0
BBX 16 32 0 -2
BITMAP
0000
00C0
0180
0100
0380
03C0
0180
0000
0000
0000
0000
0000
0000
0000
0000
0000
0000
0000
0000
0000
0000
0000
0000
0000
0000
0000
0000
0000
0000
0000
0000
0000
ENDCHAR

STARTCHAR a
ENCODING 97
SWIDTH 451 0
DWIDTH 16 0
BBX 16 32 0 -2
BITMAP
0000
0000
0000
0000
0000
0000
0000
0000
0000
0FC0
1860
3030
3030
3030
0030
0030
03F0
0E30
1830
1830
3030
3030
3030
3030
1032
18F2
079C
0000
0000
0000
0000
0000
ENDCHAR

STARTCHAR b
ENCODING 98
SWIDTH 451 0
DWIDTH 16 0
BBX 16 32 0 -2
BITMAP
0000
0000
0000
0800
3800
1800
1800
1800
1800
19E0
1E18
1C0C
1804
1806
1806
1806
1806
1806
1806
1806
1806
1806
1806
1804
1C0C
1618
13F0
0000
0000
0000
0000
0000
ENDCHAR

STARTCHAR c
ENCODING 99
SWIDTH 451 0
DWIDTH 16 0
BBX 16 32 0 -2
BITMAP
0000
0000
0000
0000
0000
0000
0000
0000
0000
03C0
0E30
1818
180C
300C
3000
3000
3000
3000
3000
3000
3000
3004
3004
180C
1808
0E38
03E0
0000
0000
0000
0000
0000
ENDCHAR

STARTCHAR d
ENCODING 100
SWIDTH 451 0
DWIDTH 16 0
BBX 16 32 0 -2
BITMAP
0000
0000
0000
0004
003C
000C
000C
000C
000C
03EC
0C1C
180C
180C
300C
300C
300C
300C
300C
300C
300C
300C
300C
300C
180C
180C
0C1C
03E7
0000
0000
0000
0000
0000
ENDCHAR

STARTCHAR e
ENCODING 101
SWIDTH 451 0
DWIDTH 16 0
BBX 16 32 0 -2
BITMAP
0000
0000
0000
0000
0000
0000
0000
0000
0000
03E0
0C18
180C
1004
3006
3006
3006
3006
3FFE
3000
3000
3000
3002
3002
1004
1804
0C18
03E0
0000
0000
0000
0000
0000
ENDCHAR

STARTCHAR f
ENCODING 102
SWIDTH 451 0
DWIDTH 16 0
BBX 16 32 0 -2
BITMAP
0000
0000
0000
00E0
0130
0130
0330
0300
0300
0300
1FE0
0300
0300
0300
0300
0300
0300
0300
0300
0300
0300
0300
0300
0300
0300
0300
0FC0
0000
0000
0000
0000
0000
ENDCHAR

STARTCHAR g
ENCODING 103
SWIDTH 451 0
DWIDTH 16 0
BBX 16 32 0 -2
BITMAP
0000
0000
0000
0000
0000
0000
0000
0000
0000
079C
1866
1026
3030
3030
3030
3030
1020
1860
0F80
1800
3000
3000
3800
1FC0
37F0
2038
6018
6018
6018
6018
3030
1FC0
ENDCHAR

STARTCHAR h
ENCODING 104
SWIDTH 451 0
DWIDTH 16 0
BBX 16 32 0 -2
BITMAP
0000
0000
0000
0800
3800
1800
1800
1800
1800
19F0
1A18
1C08
180C
180C
180C
180C
180C
180C
180C
180C
180C
180C
180C
180C
180C
180C
3C1E
0000
0000
0000
0000
0000
ENDCHAR

STARTCHAR i
ENCODING 105
SWIDTH 451 0
DWIDTH 16 0
BBX 16 32 0 -2
BITMAP
0000
0000
0000
0180
03C0
03C0
0180
0000
0000
0000
0080
0780
0180
0180
0180
0180
0180
0180
0180
0180
0180
0180
0180
0180
0180
0180
07E0
0000
0000
0000
0000
0000
ENDCHAR

STARTCHAR j
ENCODING 106
SWIDTH 451 0
DWIDTH 16 0
BBX 16 32 0 -2
BITMAP
0000
0000
0000
0030
0078
0078
0030
0000
0000
0000
0030
00F0
0030
0030
0030
0030
0030
0030
0030
0030
0030
0030
0030
0030
0030
0030
0030
0030
0830
1C30
1C60
0FC0
ENDCHAR

STARTCHAR k
ENCODING 107
SWIDTH 451 0
DWIDTH 16 0
BBX 16 32 0 -2
BITMAP
0000
0000
0000
0800
3800
1800
1800
1800
1800
181E
180C
1818
1830
1860
18C0
1980
1B80
1F80
1CC0
18C0
1860
1860
1830
1830
1818
1818
3C7E
0000
0000
0000
0000
0000
ENDCHAR

STARTCHAR l
ENCODING 108
SWIDTH 451 0
DWIDTH 16 0
BBX 16 32 0 -2
BITMAP
0000
0000
0000
0000
0100
0F00
0300
0300
0300
0300
0300
0300
0300
0300
0300
0300
0300
0300
0300
0300
0300
0300
0300
0300
0300
0300
0FC0
0000
0000
0000
0000
0000
ENDCHAR

STARTCHAR m
ENCODING 109
SWIDTH 451 0
DWIDTH 16 0
BBX 16 32 0 -2
BITMAP
0000
0000
0000
0000
0000
0000
0000
0000
0000
3738
79CC
318C
318C
318C
318C
318C
318C
318C
318C
318C
318C
318C
318C
318C
318C
318C
7BDE
0000
0000
0000
0000
0000
ENDCHAR

STARTCHAR n
ENCODING 110
SWIDTH 451 0
DWIDTH 16 0
BBX 16 32 0 -2
BITMAP
0000
0000
0000
0000
0000
0000
0000
0000
0000
19E0
3A30
1C18
1818
1818
1818
1818
1818
1818
1818
1818
1818
1818
1818
1818
1818
1818
3C3C
0000
0000
0000
0000
0000
ENDCHAR

STARTCHAR o
ENCODING 111
SWIDTH 451 0
DWIDTH 16 0
BBX 16 32 0 -2
BITMAP
0000
0000
0000
0000
0000
0000
0000
0000
0000
03E0
0E38
180C
180C
3006
3006
3006
3006
3006
3006
3006
3006
3006
3006
180C
180C
0E38
03E0
0000
0000
0000
0000
0000
ENDCHAR

STARTCHAR p
ENCODING 112
SWIDTH 451 0
DWIDTH 16 0
BBX 16 32 0 -2
BITMAP
0000
0000
0000
0000
0000
0000
0000
0000
0000
19E0
3E18
1C0C
1804
1806
1806
1806
1806
1806
1806
1806
1806
1806
1806
1804
1C0C
1E18
19E0
1800
1800
1800
1800
3E00
ENDCHAR

STARTCHAR q
ENCODING 113
SWIDTH 451 0
DWIDTH 16 0
BBX 16 32 0 -2
BITMAP
0000
0000
0000
0000
0000
0000
0000
0000
0000
0790
1850
3030
2030
6030
6030
6030
6030
6030
6030
6030
6030
6030
6030
2030
3070
18F0
0730
0030
0030
0030
0030
00FC
ENDCHAR

STARTCHAR r
ENCODING 114
SWIDTH 451 0
DWIDTH 16 0
BBX 16 32 0 -2
BITMAP
0000
0000
0000
0000
0000
0000
0000
0000
0000
0238
1EFC
078C
0700
0600
0600
0600
0600
0600
0600
0600
0600
0600
0600
0600
0600
0600
1F80
0000
0000
0000
0000
0000
ENDCHAR

STARTCHAR s
ENCODING 115
SWIDTH 451 0
DWIDTH 16 0
BBX 16 32 0 -2
BITMAP
0000
0000
0000
0000
0000
0000
0000
0000
0000
07E4
181C
100C
3006
3002
1802
1C00
0FE0
03F8
003C
000C
2006
2006
2006
3006
300C
2C1C
27F0
0000
0000
0000
0000
0000
ENDCHAR

STARTCHAR t
ENCODING 116
SWIDTH 451 0
DWIDTH 16 0
BBX 16 32 0 -2
BITMAP
0000
0000
0000
0000
0000
0000
0200
0200
0200
0600
1FE0
0600
0600
0600
0600
0600
0600
0600
0600
0600
0600
0600
0600
0610
0610
0320
01C0
0000
0000
0000
0000
0000
ENDCHAR

STARTCHAR u
ENCODING 117
SWIDTH 451 0
DWIDTH 16 0
BBX 16 32 0 -2
BITMAP
0000
0000
0000
0000
0000
0000
0000
0000
0000
1004
701C
300C
300C
300C
300C
300C
300C
300C
300C
300C
300C
300C
300C
300C
100C
181C
0FE6
0000
0000
0000
0000
0000
ENDCHAR

STARTCHAR v
ENCODING 118
SWIDTH 451 0
DWIDTH 16 0
BBX 16 32 0 -2
BITMAP
0000
0000
0000
0000
0000
0000
0000
0000
0000
7E1F
1804
180C
0C08
0C08
0C18
0C10
0610
0630
0620
0620
0360
0340
0340
03C0
0180
0180
0180
0000
0000
0000
0000
0000
ENDCHAR

STARTCHAR w
ENCODING 119
SWIDTH 451 0
DWIDTH 16 0
BBX 16 32 0 -2
BITMAP
0000
0000
0000
0000
0000
0000
0000
0000
0000
79E7
30C2
30C2
30C2
30C2
30C4
1964
1964
1964
1964
1A68
1A68
0A28
0C30
0C30
0C30
0C30
0C30
0000
0000
0000
0000
0000
ENDCHAR

STARTCHAR x
ENCODING 120
SWIDTH 451 0
DWIDTH 16 0
BBX 16 32 0 -2
BITMAP
0000
0000
0000
0000
0000
0000
0000
0000
0000
3E78
1830
1820
0C20
0C60
0640
06C0
0280
0380
0180
0380
02C0
04C0
0460
0860
0830
1030
3CFC
0000
0000
0000
0000
0000
ENDCHAR

STARTCHAR y
ENCODING 121
SWIDTH 451 0
DWIDTH 16 0
BBX 16 32 0 -2
BITMAP
0000
0000
0000
0000
0000
0000
0000
0000
0000
7E3E
1808
1808
1808
0C10
0C10
0C10
0C10
0620
0620
0620
0620
0340
0340
0340
03C0
0180
0180
0180
3100
3100
3200
1C00
ENDCHAR

STARTCHAR z
ENCODING 122
SWIDTH 451 0
DWIDTH 16 0
BBX 16 32 0 -2
BITMAP
0000
0000
0000
0000
0000
0000
0000
0000
0000
1FF8
1818
1010
3030
2060
0040
00C0
0080
0180
0300
0200
0600
0404
0C04
180C
1008
3018
3FF8
0000
0000
0000
0000
0000
ENDCHAR

STARTCHAR {
ENCODING 123
SWIDTH 451 0
DWIDTH 16 0
BBX 16 32 0 -2
BITMAP
0000
0000
0038
00C0
0180
0180
0300
0300
0300
0300
0300
0300
0300
0300
0600
1E00
0600
0300
0300
0300
0300
0300
0300
0300
0300
0300
0180
0180
00C0
0038
0000
0000
ENDCHAR

STARTCHAR |
ENCODING 124
SWIDTH 451 0
DWIDTH 16 0
BBX 16 32 0 -2
BITMAP
0000
0000
0180
0180
0180
0180
0180
0180
0180
0180
0180
0180
0180
0000
0000
0000
0000
0000
0180
0180
0180
0180
0180
0180
0180
0180
0180
0180
0180
0180
0000
0000
ENDCHAR

STARTCHAR }
ENCODING 125
SWIDTH 451 0
DWIDTH 16 0
BBX 16 32 0 -2
BITMAP
0000
0000
1C00
0300
0180
0180
00C0
00C0
00C0
00C0
00C0
00C0
00C0
0060
0078
0060
00C0
00C0
00C0
00C0
00C0
00C0
00C0
00C0
00C0
00C0
0180
0180
0300
1C00
0000
0000
ENDCHAR

STARTCHAR ~
ENCODING 126
SWIDTH 451 0
DWIDTH 16 0
BBX 16 32 0 -2
BITMAP
0000
0000
0000
0000
0000
0000
0000
0000
0000
0000
0000
0000
0000
0E01
3F81
23E2
40FE
403C
0000
0000
0000
0000
0000
0000
0000
0000
0000
0000
0000
0000
0000
0000
ENDCHAR

STARTCHAR 
ENCODING 127
SWIDTH 451 0
DWIDTH 16 0
BBX 16 32 0 -2
BITMAP
0000
0000
0000
0000
0000
0000
0000
0000
0000
0000
0000
0000
0000
0000
0000
0000
0000
0000
0000
0000
0000
0000
0000
0000
0000
0000
0000
0000
0000
0000
0000
0000
ENDCHAR

STARTCHAR Ä
ENCODING 128
SWIDTH 451 0
DWIDTH 16 0
BBX 16 32 0 -2
BITMAP
0000
0000
0000
03C4
0FF4
1C1C
380C
300C
7004
6004
6000
6000
6000
6000
6000
6000
6000
6000
6000
6002
6002
3006
3004
180C
0C18
07F0
01C0
0080
00C0
00C0
07C0
0380
ENDCHAR

STARTCHAR Å
ENCODING 129
SWIDTH 451 0
DWIDTH 16 0
BBX 16 32 0 -2
BITMAP
0000
0000
0000
0000
0000
0000
0000
3838
3838
3838
0000
0000
0000
0000
7038
3018
3018
3018
3018
3018
3018
3018
3018
3018
3018
3018
3018
1038
1858
0F8E
0000
0000
ENDCHAR

STARTCHAR Ç
ENCODING 130
SWIDTH 451 0
DWIDTH 16 0
BBX 16 32 0 -2
BITMAP
0000
0000
0000
0000
0000
0000
00E0
00E0
00C0
0180
0100
0200
0000
0000
03C0
0C30
1818
1008
300C
300C
300C
3FFC
3000
3000
3000
1004
180C
0C18
03E0
0000
0000
0000
ENDCHAR

STARTCHAR É
ENCODING 131
SWIDTH 451 0
DWIDTH 16 0
BBX 16 32 0 -2
BITMAP
0000
0000
0000
0000
0000
0100
0380
06C0
0C60
1830
3018
2008
0000
0000
0380
0C60
1820
1030
0030
0030
0070
03B0
0C30
1830
3030
3030
3030
3030
1872
078C
0000
0000
ENDCHAR

STARTCHAR Ñ
ENCODING 132
SWIDTH 451 0
DWIDTH 16 0
BBX 16 32 0 -2
BITMAP
0000
0000
0000
0000
0000
0000
0000
3870
3870
3870
0000
0000
0000
0000
0380
0C60
1820
1030
0030
0030
0070
03B0
0C30
1830
3030
3030
3030
3030
1872
079C
0000
0000
ENDCHAR

STARTCHAR Ö
ENCODING 133
SWIDTH 451 0
DWIDTH 16 0
BBX 16 32 0 -2
BITMAP
0000
0000
0000
0000
0000
0000
0700
0700
0300
0180
0080
0040
0000
0000
0380
0C60
1820
1030
0030
0030
0070
03B0
0C30
1830
3030
3030
3030
3030
1872
079C
0000
0000
ENDCHAR

STARTCHAR Ü
ENCODING 134
SWIDTH 451 0
DWIDTH 16 0
BBX 16 32 0 -2
BITMAP
0000
0000
0000
0000
0000
0000
0380
0440
0820
0820
0440
0380
0000
0000
0380
0C60
1820
1030
0030
0030
0070
03B0
0C30
1830
3030
3030
3030
3030
1872
079C
0000
0000
ENDCHAR

STARTCHAR á
ENCODING 135
SWIDTH 451 0
DWIDTH 16 0
BBX 16 32 0 -2
BITMAP
0000
0000
0000
0000
0000
0000
0000
0000
0000
0000
0000
03C0
0C30
1818
100C
300C
3000
3000
3000
3000
3000
3000
3004
1004
1808
0C18
03E0
00C0
0060
0060
01C0
0000
ENDCHAR

STARTCHAR à
ENCODING 136
SWIDTH 451 0
DWIDTH 16 0
BBX 16 32 0 -2
BITMAP
0000
0000
0000
0000
0000
0080
01C0
0360
0630
0C18
180C
3006
0000
0000
03C0
0C30
1818
1008
300C
300C
300C
3FFC
3000
3000
3000
1004
180C
0C18
03E0
0000
0000
0000
ENDCHAR

STARTCHAR â
ENCODING 137
SWIDTH 451 0
DWIDTH 16 0
BBX 16 32 0 -2
BITMAP
0000
0000
0000
0000
0000
0000
0000
1C38
1C38
1C38
0000
0000
0000
0000
03C0
0C30
1818
1008
300C
300C
300C
3FFC
3000
3000
3000
1004
180C
0C18
03E0
0000
0000
0000
ENDCHAR

STARTCHAR ä
ENCODING 138
SWIDTH 451 0
DWIDTH 16 0
BBX 16 32 0 -2
BITMAP
0000
0000
0000
0000
0000
0000
0380
0380
0180
00C0
0040
0020
0000
0000
03C0
0C30
1818
1008
300C
300C
300C
3FFC
3000
3000
3000
1004
180C
0C18
03E0
0000
0000
0000
ENDCHAR

STARTCHAR ã
ENCODING 139
SWIDTH 451 0
DWIDTH 16 0
BBX 16 32 0 -2
BITMAP
0000
0000
0000
0000
0000
0000
0000
1C38
1C38
1C38
0000
0000
0000
0000
0380
0180
0180
0180
0180
0180
0180
0180
0180
0180
0180
0180
0180
0180
0180
07E0
0000
0000
ENDCHAR

STARTCHAR å
ENCODING 140
SWIDTH 451 0
DWIDTH 16 0
BBX 16 32 0 -2
BITMAP
0000
0000
0000
0000
0000
0180
03C0
0660
0C30
1818
1008
0000
0000
0000
0780
0180
0180
0180
0180
0180
0180
0180
0180
0180
0180
0180
0180
0180
0180
07E0
0000
0000
ENDCHAR

STARTCHAR ç
ENCODING 141
SWIDTH 451 0
DWIDTH 16 0
BBX 16 32 0 -2
BITMAP
0000
0000
0000
0000
0000
0000
0380
0380
0180
00C0
0040
0020
0000
0000
0780
0180
0180
0180
0180
0180
0180
0180
0180
0180
0180
0180
0180
0180
0180
07E0
0000
0000
ENDCHAR

STARTCHAR é
ENCODING 142
SWIDTH 451 0
DWIDTH 16 0
BBX 16 32 0 -2
BITMAP
0000
0000
1C38
1C38
1C38
0000
0180
0180
0180
0180
0380
03C0
02C0
02C0
06C0
04C0
0460
0460
0C60
0860
0860
0FF0
1830
1030
1030
1030
3018
2018
2018
FC3E
0000
0000
ENDCHAR

STARTCHAR è
ENCODING 143
SWIDTH 451 0
DWIDTH 16 0
BBX 16 32 0 -2
BITMAP
0000
01C0
0220
0220
0220
01C0
0000
0000
0180
0180
0180
0380
03C0
02C0
02C0
06C0
0440
0460
0460
0C60
0860
0FE0
0830
1830
1030
1030
3018
2018
2018
FC3E
0000
0000
ENDCHAR

STARTCHAR ê
ENCODING 144
SWIDTH 451 0
DWIDTH 16 0
BBX 16 32 0 -2
BITMAP
0000
00E0
00E0
00C0
0180
0100
0200
0000
7FFE
3006
3006
3002
3002
3002
3002
3010
3010
3030
3FF0
3030
3010
3010
3010
3000
3001
3001
3003
3002
3006
7FFE
0000
0000
ENDCHAR

STARTCHAR ë
ENCODING 145
SWIDTH 451 0
DWIDTH 16 0
BBX 16 32 0 -2
BITMAP
0000
0000
0000
0000
0000
0000
0000
0000
0000
0000
0000
0000
0000
0000
0000
1C70
2298
4308
030C
030C
030C
07FC
1B00
3300
6300
6300
6304
6304
6288
3C70
0000
0000
ENDCHAR

STARTCHAR í
ENCODING 146
SWIDTH 451 0
DWIDTH 16 0
BBX 16 32 0 -2
BITMAP
0000
0000
0000
0000
0000
0000
07FE
0386
0382
0382
0382
0782
0580
0580
0588
0D88
0998
09F8
0998
1188
1F88
1180
1180
3181
2181
2181
2183
6182
4186
F3FE
0000
0000
ENDCHAR

STARTCHAR ì
ENCODING 147
SWIDTH 451 0
DWIDTH 16 0
BBX 16 32 0 -2
BITMAP
0000
0000
0000
0000
0000
0180
03C0
0660
0C30
1818
300C
2004
0000
0000
03C0
0C30
1818
1008
300C
300C
300C
300C
300C
300C
300C
300C
1008
1818
0C30
03C0
0000
0000
ENDCHAR

STARTCHAR î
ENCODING 148
SWIDTH 451 0
DWIDTH 16 0
BBX 16 32 0 -2
BITMAP
0000
0000
0000
0000
0000
0000
0000
3838
3838
3838
0000
0000
0000
0000
03C0
0C30
1818
1008
300C
300C
300C
300C
300C
300C
300C
300C
1008
1818
0C30
03C0
0000
0000
ENDCHAR

STARTCHAR ï
ENCODING 149
SWIDTH 451 0
DWIDTH 16 0
BBX 16 32 0 -2
BITMAP
0000
0000
0000
0000
0000
0000
0700
0700
0300
0180
0080
0040
0000
0000
03C0
0C30
1818
1008
300C
300C
300C
300C
300C
300C
300C
300C
1008
1818
0C30
03C0
0000
0000
ENDCHAR

STARTCHAR ñ
ENCODING 150
SWIDTH 451 0
DWIDTH 16 0
BBX 16 32 0 -2
BITMAP
0000
0000
0000
0000
0000
0300
0780
0CC0
1860
3030
2010
0000
0000
0000
7038
3018
3018
3018
3018
3018
3018
3018
3018
3018
3018
3018
1018
187E
07D8
0000
0000
0000
ENDCHAR

STARTCHAR ó
ENCODING 151
SWIDTH 451 0
DWIDTH 16 0
BBX 16 32 0 -2
BITMAP
0000
0000
0000
0000
0000
0000
0700
0700
0300
0180
0080
0040
0000
0000
7038
3018
3018
3018
3018
3018
3018
3018
3018
3018
3018
3018
3018
1818
1C7E
07C8
0000
0000
ENDCHAR

STARTCHAR ò
ENCODING 152
SWIDTH 451 0
DWIDTH 16 0
BBX 16 32 0 -2
BITMAP
0000
0000
0000
0000
0000
0000
0000
1C38
1C38
1C38
0000
0000
0000
0000
7E3E
180C
1808
0C18
0C10
0E30
0620
0760
0340
03C0
0180
0180
0100
0300
3200
3400
1800
0000
ENDCHAR

STARTCHAR ô
ENCODING 153
SWIDTH 451 0
DWIDTH 16 0
BBX 16 32 0 -2
BITMAP
0000
1C38
1C38
1C38
0000
0000
0000
03C0
0C30
1818
300C
300C
6006
6006
6006
6006
6006
6006
6006
6006
6006
6006
6006
6006
300C
300C
1818
0C30
03C0
0000
0000
0000
ENDCHAR

STARTCHAR ö
ENCODING 154
SWIDTH 451 0
DWIDTH 16 0
BBX 16 32 0 -2
BITMAP
0000
1C38
1C38
1C38
0000
0000
0000
FC3F
300C
300C
300C
300C
300C
300C
300C
300C
300C
300C
300C
300C
300C
300C
300C
300C
300C
300C
1008
1818
0C30
03C0
0000
0000
ENDCHAR

STARTCHAR õ
ENCODING 155
SWIDTH 451 0
DWIDTH 16 0
BBX 16 32 0 -2
BITMAP
0000
0000
0000
0000
0000
0000
00C0
00C0
00C0
00C0
03C0
0C30
1818
1008
300C
300C
3000
3000
3000
3000
3000
1004
180C
0C18
03E0
00C0
00C0
00C0
00C0
00C0
0000
0000
ENDCHAR

STARTCHAR ú
ENCODING 156
SWIDTH 451 0
DWIDTH 16 0
BBX 16 32 0 -2
BITMAP
0000
0000
0000
0000
0000
0000
00C0
0330
0610
0418
0C18
0C18
0C00
0C00
0C00
0600
0600
3FC0
0600
0600
0200
0300
0300
3B00
6702
6302
6302
6584
38FC
0030
0000
0000
ENDCHAR

STARTCHAR ù
ENCODING 157
SWIDTH 451 0
DWIDTH 16 0
BBX 16 32 0 -2
BITMAP
0000
0000
0000
0000
0000
0000
7E1F
1804
180C
1808
0C08
0C18
0C10
0610
0630
0620
0320
0360
0340
0FF0
0180
0180
0FF0
0180
0180
0180
0180
0180
0180
07E0
0000
0000
ENDCHAR

STARTCHAR û
ENCODING 158
SWIDTH 451 0
DWIDTH 16 0
BBX 16 32 0 -2
BITMAP
0000
0000
0000
0000
0000
0000
7800
3600
3200
3300
3300
3310
3310
3310
3310
3330
3330
327E
3230
3C30
3030
3030
3030
3030
3030
3030
3033
3033
3013
7C0E
0000
0000
ENDCHAR

STARTCHAR ü
ENCODING 159
SWIDTH 451 0
DWIDTH 16 0
BBX 16 32 0 -2
BITMAP
0000
0000
0000
0000
0000
0000
0038
004C
00CC
0080
0080
0180
0180
0180
0180
1FF8
0180
0180
0180
0180
0180
0180
0180
0180
0180
0180
0100
3100
3300
3200
1C00
0000
ENDCHAR

STARTCHAR †
ENCODING 160
SWIDTH 451 0
DWIDTH 16 0
BBX 16 32 0 -2
BITMAP
0000
0000
0000
0000
0000
0000
00C0
00C0
0180
0100
0200
0400
0000
0000
0380
0C60
1820
1030
0030
0030
0070
03B0
0C30
1830
3030
3030
3030
3030
1872
079C
0000
0000
ENDCHAR

STARTCHAR °
ENCODING 161
SWIDTH 451 0
DWIDTH 16 0
BBX 16 32 0 -2
BITMAP
0000
0000
0000
0000
0000
0000
01C0
01C0
0180
0300
0200
0400
0000
0000
0F00
0300
0300
0300
0300
0300
0300
0300
0300
0300
0300
0300
0300
0300
0300
1FE0
0000
0000
ENDCHAR

STARTCHAR ¢
ENCODING 162
SWIDTH 451 0
DWIDTH 16 0
BBX 16 32 0 -2
BITMAP
0000
0000
0000
0000
0000
0000
00E0
00E0
00C0
0180
0100
0200
0000
0000
03C0
0C30
1818
1008
300C
300C
300C
300C
300C
300C
300C
300C
1008
1818
0C30
03C0
0000
0000
ENDCHAR

STARTCHAR £
ENCODING 163
SWIDTH 451 0
DWIDTH 16 0
BBX 16 32 0 -2
BITMAP
0000
0000
0000
0000
0000
0000
00E0
00E0
00C0
0180
0100
0200
0000
0000
7078
3018
3018
3018
3018
3018
3018
3018
3018
3018
3018
3018
3018
1818
1C3E
07C8
0000
0000
ENDCHAR

STARTCHAR §
ENCODING 164
SWIDTH 451 0
DWIDTH 16 0
BBX 16 32 0 -2
BITMAP
0000
0000
0000
0000
0000
0000
1C02
3F02
23C4
40FC
4038
0000
0000
0000
39E0
1A30
1C18
1818
1818
1818
1818
1818
1818
1818
1818
1818
1818
1818
1818
3E3E
0000
0000
ENDCHAR

STARTCHAR •
ENCODING 165
SWIDTH 451 0
DWIDTH 16 0
BBX 16 32 0 -2
BITMAP
0000
0E08
1F88
11F8
1070
0000
0000
703E
1008
1808
1808
1C08
1C08
1608
1608
1308
1308
1188
1188
10C8
10C8
1068
1068
1038
1038
1018
1018
1008
1008
7C08
0000
0000
ENDCHAR

STARTCHAR ¶
ENCODING 166
SWIDTH 451 0
DWIDTH 16 0
BBX 16 32 0 -2
BITMAP
0000
0000
01D0
0630
0C30
0C30
0C30
0C30
0470
0398
0000
0000
0FF8
0000
0000
0000
0000
0000
0000
0000
0000
0000
0000
0000
0000
0000
0000
0000
0000
0000
0000
0000
ENDCHAR

STARTCHAR ß
ENCODING 167
SWIDTH 451 0
DWIDTH 16 0
BBX 16 32 0 -2
BITMAP
0000
0000
01C0
0630
0410
0C18
0C18
0410
0630
01C0
0000
0000
0FF8
0000
0000
0000
0000
0000
0000
0000
0000
0000
0000
0000
0000
0000
0000
0000
0000
0000
0000
0000
ENDCHAR

STARTCHAR ®
ENCODING 168
SWIDTH 451 0
DWIDTH 16 0
BBX 16 32 0 -2
BITMAP
0000
0000
0000
0000
0000
0000
0180
03C0
0180
0000
0000
0000
0000
0180
0180
0180
0180
0180
0300
0600
0C00
1800
1800
3008
301C
301C
100C
1808
0C10
03E0
0000
0000
ENDCHAR

STARTCHAR ©
ENCODING 169
SWIDTH 451 0
DWIDTH 16 0
BBX 16 32 0 -2
BITMAP
0000
0000
0000
0000
0000
0000
0000
0000
0000
7FFE
7FFE
6000
6000
6000
6000
6000
6000
6000
6000
6000
0000
0000
0000
0000
0000
0000
0000
0000
0000
0000
0000
0000
ENDCHAR

STARTCHAR ™
ENCODING 170
SWIDTH 451 0
DWIDTH 16 0
BBX 16 32 0 -2
BITMAP
0000
0000
0000
0000
0000
0000
0000
0000
0000
7FFE
7FFE
0006
0006
0006
0006
0006
0006
0006
0006
0006
0000
0000
0000
0000
0000
0000
0000
0000
0000
0000
0000
0000
ENDCHAR

STARTCHAR ´
ENCODING 171
SWIDTH 451 0
DWIDTH 16 0
BBX 16 32 0 -2
BITMAP
0000
0000
0000
1018
7018
3018
3030
3030
3030
3060
3060
3060
30C0
30C0
7980
0180
0180
0300
031C
0322
0663
0663
0C03
0C06
0C0C
1818
1831
1861
307F
307E
0000
0000
ENDCHAR

STARTCHAR ¨
ENCODING 172
SWIDTH 451 0
DWIDTH 16 0
BBX 16 32 0 -2
BITMAP
0000
0000
0000
1018
7018
3030
3030
3030
3060
3060
3060
30C0
30C0
3180
7980
0198
0318
0338
0338
0678
0658
0CD8
0C98
0D98
19FE
1818
1818
3018
3018
003C
0000
0000
ENDCHAR

STARTCHAR ≠
ENCODING 173
SWIDTH 451 0
DWIDTH 16 0
BBX 16 32 0 -2
BITMAP
0000
0000
0000
0000
0000
0000
0100
0380
0380
0100
0000
0000
0000
0000
0100
0100
0100
0100
0100
0100
0380
0380
0380
0380
0380
0380
0380
0380
0100
0000
0000
0000
ENDCHAR

STARTCHAR Æ
ENCODING 174
SWIDTH 451 0
DWIDTH 16 0
BBX 16 32 0 -2
BITMAP
0000
0000
0000
0000
0000
0000
0000
0000
0186
030C
0618
0C30
1860
30C0
6180
C300
C300
6180
30C0
1860
0C30
0618
030C
0186
0000
0000
0000
0000
0000
0000
0000
0000
ENDCHAR

STARTCHAR Ø
ENCODING 175
SWIDTH 451 0
DWIDTH 16 0
BBX 16 32 0 -2
BITMAP
0000
0000
0000
0000
0000
0000
0000
0000
C300
6180
30C0
1860
0C30
0618
030C
0186
0186
030C
0618
0C30
1860
30C0
6180
C300
0000
0000
0000
0000
0000
0000
0000
0000
ENDCHAR

STARTCHAR ∞
ENCODING 176
SWIDTH 451 0
DWIDTH 16 0
BBX 16 32 0 -2
BITMAP
0000
0000
0707
0707
0707
0000
0000
0000
0000
0000
7070
7070
7070
0000
0000
0000
0000
0000
0707
0707
0707
0000
0000
0000
0000
0000
7070
7070
7070
0000
0000
0000
ENDCHAR

STARTCHAR ±
ENCODING 177
SWIDTH 451 0
DWIDTH 16 0
BBX 16 32 0 -2
BITMAP
0000
0000
0F0F
0F0F
0F0F
0000
0000
0000
0000
0000
F0F0
F0F0
F0F0
0000
0000
0000
0000
0000
0F0F
0F0F
0F0F
0000
0000
0000
0000
0000
F0F0
F0F0
F0F0
0000
0000
0000
ENDCHAR

STARTCHAR ≤
ENCODING 178
SWIDTH 451 0
DWIDTH 16 0
BBX 16 32 0 -2
BITMAP
0000
0000
07E0
07E0
07E0
0000
0000
0000
0000
0000
F81F
F81F
F81F
8000
0000
0000
0000
0000
07E0
07E0
07E0
0000
0000
0000
0000
0000
F81F
F81F
F81F
8000
0000
0000
ENDCHAR

STARTCHAR ≥
ENCODING 179
SWIDTH 451 0
DWIDTH 16 0
BBX 16 32 0 -2
BITMAP
0C00
0C00
0C00
0C00
0C00
0C00
0C00
0C00
0C00
0C00
0C00
0C00
0C00
0C00
0C00
0C00
0C00
0C00
0C00
0C00
0C00
0C00
0C00
0C00
0C00
0C00
0C00
0C00
0C00
0C00
0C00
0C00
ENDCHAR

STARTCHAR ¥
ENCODING 180
SWIDTH 451 0
DWIDTH 16 0
BBX 16 32 0 -2
BITMAP
0C00
0C00
0C00
0C00
0C00
0C00
0C00
0C00
0C00
0C00
0C00
0C00
FC00
FC00
0C00
0C00
0C00
FC00
FC00
0C00
0C00
0C00
0C00
0C00
0C00
0C00
0C00
0C00
0C00
0C00
0C00
0C00
ENDCHAR

STARTCHAR µ
ENCODING 181
SWIDTH 451 0
DWIDTH 16 0
BBX 16 32 0 -2
BITMAP
0C00
0C00
0C00
0C00
0C00
0C00
0C00
0C00
0C00
0C00
0C00
0C00
FC00
FC00
0C00
0C00
0C00
FC00
FC00
0C00
0C00
0C00
0C00
0C00
0C00
0C00
0C00
0C00
0C00
0C00
0C00
0C00
ENDCHAR

STARTCHAR ∂
ENCODING 182
SWIDTH 451 0
DWIDTH 16 0
BBX 16 32 0 -2
BITMAP
0C60
0C60
0C60
0C60
0C60
0C60
0C60
0C60
0C60
0C60
0C60
0C60
0C60
0C60
0C60
0C60
0C60
FC60
FC60
0C60
0C60
0C60
0C60
0C60
0C60
0C60
0C60
0C60
0C60
0C60
0C60
0C60
ENDCHAR

STARTCHAR ∑
ENCODING 183
SWIDTH 451 0
DWIDTH 16 0
BBX 16 32 0 -2
BITMAP
0000
0000
0000
0000
0000
0000
0000
0000
0000
0000
0000
0000
0000
0000
0000
0000
0000
FFE0
FFE0
0C60
0C60
0C60
0C60
0C60
0C60
0C60
0C60
0C60
0C60
0C60
0C60
0C60
ENDCHAR

STARTCHAR ∏
ENCODING 184
SWIDTH 451 0
DWIDTH 16 0
BBX 16 32 0 -2
BITMAP
0000
0000
0000
0000
0000
0000
0000
0000
0000
0000
0000
0000
FC00
FC00
0C00
0C00
0C00
FC00
FC00
0C00
0C00
0C00
0C00
0C00
0C00
0C00
0C00
0C00
0C00
0C00
0C00
0C00
ENDCHAR

STARTCHAR π
ENCODING 185
SWIDTH 451 0
DWIDTH 16 0
BBX 16 32 0 -2
BITMAP
0C60
0C60
0C60
0C60
0C60
0C60
0C60
0C60
0C60
0C60
0C60
0C60
FC60
FC60
0060
0060
0060
FC60
FC60
0C60
0C60
0C60
0C60
0C60
0C60
0C60
0C60
0C60
0C60
0C60
0C60
0C60
ENDCHAR

STARTCHAR ∫
ENCODING 186
SWIDTH 451 0
DWIDTH 16 0
BBX 16 32 0 -2
BITMAP
0C60
0C60
0C60
0C60
0C60
0C60
0C60
0C60
0C60
0C60
0C60
0C60
0C60
0C60
0C60
0C60
0C60
0C60
0C60
0C60
0C60
0C60
0C60
0C60
0C60
0C60
0C60
0C60
0C60
0C60
0C60
0C60
ENDCHAR

STARTCHAR ª
ENCODING 187
SWIDTH 451 0
DWIDTH 16 0
BBX 16 32 0 -2
BITMAP
0000
0000
0000
0000
0000
0000
0000
0000
0000
0000
0000
0000
FFE0
FFE0
0060
0060
0060
FC60
FC60
0C60
0C60
0C60
0C60
0C60
0C60
0C60
0C60
0C60
0C60
0C60
0C60
0C60
ENDCHAR

STARTCHAR º
ENCODING 188
SWIDTH 451 0
DWIDTH 16 0
BBX 16 32 0 -2
BITMAP
0C60
0C60
0C60
0C60
0C60
0C60
0C60
0C60
0C60
0C60
0C60
0C60
FC60
FC60
0060
0060
0060
FFE0
FFE0
0000
0000
0000
0000
0000
0000
0000
0000
0000
0000
0000
0000
0000
ENDCHAR

STARTCHAR Ω
ENCODING 189
SWIDTH 451 0
DWIDTH 16 0
BBX 16 32 0 -2
BITMAP
0C60
0C60
0C60
0C60
0C60
0C60
0C60
0C60
0C60
0C60
0C60
0C60
0C60
0C60
0C60
0C60
0C60
FFE0
FFE0
0000
0000
0000
0000
0000
0000
0000
0000
0000
0000
0000
0000
0000
ENDCHAR

STARTCHAR æ
ENCODING 190
SWIDTH 451 0
DWIDTH 16 0
BBX 16 32 0 -2
BITMAP
0C00
0C00
0C00
0C00
0C00
0C00
0C00
0C00
0C00
0C00
0C00
0C00
FC00
FC00
0C00
0C00
0C00
FC00
FC00
0000
0000
0000
0000
0000
0000
0000
0000
0000
0000
0000
0000
0000
ENDCHAR

STARTCHAR ø
ENCODING 191
SWIDTH 451 0
DWIDTH 16 0
BBX 16 32 0 -2
BITMAP
0000
0000
0000
0000
0000
0000
0000
0000
0000
0000
0000
0000
0000
0000
0000
0000
0000
FC00
FC00
0C00
0C00
0C00
0C00
0C00
0C00
0C00
0C00
0C00
0C00
0C00
0C00
0C00
ENDCHAR

STARTCHAR ¿
ENCODING 192
SWIDTH 451 0
DWIDTH 16 0
BBX 16 32 0 -2
BITMAP
0C00
0C00
0C00
0C00
0C00
0C00
0C00
0C00
0C00
0C00
0C00
0C00
0C00
0C00
0C00
0C00
0C00
0FFE
0FFE
0000
0000
0000
0000
0000
0000
0000
0000
0000
0000
0000
0000
0000
ENDCHAR

STARTCHAR ¡
ENCODING 193
SWIDTH 451 0
DWIDTH 16 0
BBX 16 32 0 -2
BITMAP
0C00
0C00
0C00
0C00
0C00
0C00
0C00
0C00
0C00
0C00
0C00
0C00
0C00
0C00
0C00
0C00
0C00
FFFE
FFFE
0000
0000
0000
0000
0000
0000
0000
0000
0000
0000
0000
0000
0000
ENDCHAR

STARTCHAR ¬
ENCODING 194
SWIDTH 451 0
DWIDTH 16 0
BBX 16 32 0 -2
BITMAP
0000
0000
0000
0000
0000
0000
0000
0000
0000
0000
0000
0000
0000
0000
0000
0000
0000
FFFE
FFFE
0C00
0C00
0C00
0C00
0C00
0C00
0C00
0C00
0C00
0C00
0C00
0C00
0000
ENDCHAR

STARTCHAR √
ENCODING 195
SWIDTH 451 0
DWIDTH 16 0
BBX 16 32 0 -2
BITMAP
0C00
0C00
0C00
0C00
0C00
0C00
0C00
0C00
0C00
0C00
0C00
0C00
0C00
0C00
0C00
0C00
0C00
0FFE
0FFE
0C00
0C00
0C00
0C00
0C00
0C00
0C00
0C00
0C00
0C00
0C00
0C00
0C00
ENDCHAR

STARTCHAR ƒ
ENCODING 196
SWIDTH 451 0
DWIDTH 16 0
BBX 16 32 0 -2
BITMAP
0000
0000
0000
0000
0000
0000
0000
0000
0000
0000
0000
0000
0000
0000
0000
0000
0000
FFFF
FFFF
8000
0000
0000
0000
0000
0000
0000
0000
0000
0000
0000
0000
0000
ENDCHAR

STARTCHAR ≈
ENCODING 197
SWIDTH 451 0
DWIDTH 16 0
BBX 16 32 0 -2
BITMAP
0C00
0C00
0C00
0C00
0C00
0C00
0C00
0C00
0C00
0C00
0C00
0C00
0C00
0C00
0C00
0C00
0C00
FFFE
FFFE
0C00
0C00
0C00
0C00
0C00
0C00
0C00
0C00
0C00
0C00
0C00
0C00
0C00
ENDCHAR

STARTCHAR ∆
ENCODING 198
SWIDTH 451 0
DWIDTH 16 0
BBX 16 32 0 -2
BITMAP
0C00
0C00
0C00
0C00
0C00
0C00
0C00
0C00
0C00
0C00
0C00
0C00
0FFE
0FFE
0C00
0C00
0C00
0FFE
0FFE
0C00
0C00
0C00
0C00
0C00
0C00
0C00
0C00
0C00
0C00
0C00
0C00
0C00
ENDCHAR

STARTCHAR «
ENCODING 199
SWIDTH 451 0
DWIDTH 16 0
BBX 16 32 0 -2
BITMAP
0C60
0C60
0C60
0C60
0C60
0C60
0C60
0C60
0C60
0C60
0C60
0C60
0C60
0C60
0C60
0C60
0C60
0C7F
8C7F
8C60
0C60
0C60
0C60
0C60
0C60
0C60
0C60
0C60
0C60
0C60
0C60
0C60
ENDCHAR

STARTCHAR »
ENCODING 200
SWIDTH 451 0
DWIDTH 16 0
BBX 16 32 0 -2
BITMAP
0C60
0C60
0C60
0C60
0C60
0C60
0C60
0C60
0C60
0C60
0C60
0C60
0C7F
8C7F
8C00
0C00
0C00
0FFF
8FFF
8000
0000
0000
0000
0000
0000
0000
0000
0000
0000
0000
0000
0000
ENDCHAR

STARTCHAR …
ENCODING 201
SWIDTH 451 0
DWIDTH 16 0
BBX 16 32 0 -2
BITMAP
0000
0000
0000
0000
0000
0000
0000
0000
0000
0000
0000
0000
0000
0FFE
0FFE
0C00
0C00
0C00
0C7E
0C7E
0C60
0C60
0C60
0C60
0C60
0C60
0C60
0C60
0C60
0C60
0C60
0C60
ENDCHAR

STARTCHAR  
ENCODING 202
SWIDTH 451 0
DWIDTH 16 0
BBX 16 32 0 -2
BITMAP
0C60
0C60
0C60
0C60
0C60
0C60
0C60
0C60
0C60
0C60
0C60
0C60
FC7E
FC7E
0000
0000
0000
FFFE
FFFE
0000
0000
0000
0000
0000
0000
0000
0000
0000
0000
0000
0000
0000
ENDCHAR

STARTCHAR À
ENCODING 203
SWIDTH 451 0
DWIDTH 16 0
BBX 16 32 0 -2
BITMAP
0000
0000
0000
0000
0000
0000
0000
0000
0000
0000
0000
0000
FFFE
FFFE
0000
0000
0000
FC7E
FC7E
0C60
0C60
0C60
0C60
0C60
0C60
0C60
0C60
0C60
0C60
0C60
0C60
0C60
ENDCHAR

STARTCHAR Ã
ENCODING 204
SWIDTH 451 0
DWIDTH 16 0
BBX 16 32 0 -2
BITMAP
0C60
0C60
0C60
0C60
0C60
0C60
0C60
0C60
0C60
0C60
0C60
0C60
0C7E
0C7E
0C00
0C00
0C00
0C7E
0C7E
0C60
0C60
0C60
0C60
0C60
0C60
0C60
0C60
0C60
0C60
0C60
0C60
0C60
ENDCHAR

STARTCHAR Õ
ENCODING 205
SWIDTH 451 0
DWIDTH 16 0
BBX 16 32 0 -2
BITMAP
0000
0000
0000
0000
0000
0000
0000
0000
0000
0000
0000
0000
FFFE
FFFE
0000
0000
0000
FFFE
FFFE
0000
0000
0000
0000
0000
0000
0000
0000
0000
0000
0000
0000
0000
ENDCHAR

STARTCHAR Œ
ENCODING 206
SWIDTH 451 0
DWIDTH 16 0
BBX 16 32 0 -2
BITMAP
0C60
0C60
0C60
0C60
0C60
0C60
0C60
0C60
0C60
0C60
0C60
0C60
FC7E
FC7E
0000
0000
0000
FC7E
FC7E
0C60
0C60
0C60
0C60
0C60
0C60
0C60
0C60
0C60
0C60
0C60
0C60
0C60
ENDCHAR

STARTCHAR œ
ENCODING 207
SWIDTH 451 0
DWIDTH 16 0
BBX 16 32 0 -2
BITMAP
0C00
0C00
0C00
0C00
0C00
0C00
0C00
0C00
0C00
0C00
0C00
0C00
FFFE
FFFE
0000
0000
0000
FFFE
FFFE
0000
0000
0000
0000
0000
0000
0000
0000
0000
0000
0000
0000
0000
ENDCHAR

STARTCHAR –
ENCODING 208
SWIDTH 451 0
DWIDTH 16 0
BBX 16 32 0 -2
BITMAP
0C60
0C60
0C60
0C60
0C60
0C60
0C60
0C60
0C60
0C60
0C60
0C60
0C60
0C60
0C60
0C60
0C60
FFFE
FFFE
0000
0000
0000
0000
0000
0000
0000
0000
0000
0000
0000
0000
0000
ENDCHAR

STARTCHAR —
ENCODING 209
SWIDTH 451 0
DWIDTH 16 0
BBX 16 32 0 -2
BITMAP
0000
0000
0000
0000
0000
0000
0000
0000
0000
0000
0000
0000
FFFE
FFFE
0000
0000
0000
FFFE
FFFE
0C00
0C00
0C00
0C00
0C00
0C00
0C00
0C00
0C00
0C00
0C00
0C00
0C00
ENDCHAR

STARTCHAR “
ENCODING 210
SWIDTH 451 0
DWIDTH 16 0
BBX 16 32 0 -2
BITMAP
0000
0000
0000
0000
0000
0000
0000
0000
0000
0000
0000
0000
0000
0000
0000
0000
0000
FFFE
FFFE
0C60
0C60
0C60
0C60
0C60
0C60
0C60
0C60
0C60
0C60
0C60
0C60
0C60
ENDCHAR

STARTCHAR ”
ENCODING 211
SWIDTH 451 0
DWIDTH 16 0
BBX 16 32 0 -2
BITMAP
0C60
0C60
0C60
0C60
0C60
0C60
0C60
0C60
0C60
0C60
0C60
0C60
0C60
0C60
0C60
0C60
0C60
0FFE
0FFE
0000
0000
0000
0000
0000
0000
0000
0000
0000
0000
0000
0000
0000
ENDCHAR

STARTCHAR ‘
ENCODING 212
SWIDTH 451 0
DWIDTH 16 0
BBX 16 32 0 -2
BITMAP
0C00
0C00
0C00
0C00
0C00
0C00
0C00
0C00
0C00
0C00
0C00
0C00
0FFE
0FFE
0C00
0C00
0C00
0FFE
0FFE
0000
0000
0000
0000
0000
0000
0000
0000
0000
0000
0000
0000
0000
ENDCHAR

STARTCHAR ’
ENCODING 213
SWIDTH 451 0
DWIDTH 16 0
BBX 16 32 0 -2
BITMAP
0000
0000
0000
0000
0000
0000
0000
0000
0000
0000
0000
0000
0FFE
0FFE
0C00
0C00
0C00
0FFE
0FFE
0C00
0C00
0C00
0C00
0C00
0C00
0C00
0C00
0C00
0C00
0C00
0C00
0C00
ENDCHAR

STARTCHAR ÷
ENCODING 214
SWIDTH 451 0
DWIDTH 16 0
BBX 16 32 0 -2
BITMAP
0000
0000
0000
0000
0000
0000
0000
0000
0000
0000
0000
0000
0000
0000
0000
0000
0000
0FFE
0FFE
0C60
0C60
0C60
0C60
0C60
0C60
0C60
0C60
0C60
0C60
0C60
0C60
0C60
ENDCHAR

STARTCHAR ◊
ENCODING 215
SWIDTH 451 0
DWIDTH 16 0
BBX 16 32 0 -2
BITMAP
0C60
0C60
0C60
0C60
0C60
0C60
0C60
0C60
0C60
0C60
0C60
0C60
0C60
0C60
0C60
0C60
0C60
FFFE
FFFE
0C60
0C60
0C60
0C60
0C60
0C60
0C60
0C60
0C60
0C60
0C60
0C60
0C60
ENDCHAR

STARTCHAR ÿ
ENCODING 216
SWIDTH 451 0
DWIDTH 16 0
BBX 16 32 0 -2
BITMAP
0C00
0C00
0C00
0C00
0C00
0C00
0C00
0C00
0C00
0C00
0C00
0C00
FFFE
FFFE
0C00
0C00
0C00
FFFE
FFFE
0C00
0C00
0C00
0C00
0C00
0C00
0C00
0C00
0C00
0C00
0C00
0C00
0C00
ENDCHAR

STARTCHAR Ÿ
ENCODING 217
SWIDTH 451 0
DWIDTH 16 0
BBX 16 32 0 -2
BITMAP
0C00
0C00
0C00
0C00
0C00
0C00
0C00
0C00
0C00
0C00
0C00
0C00
0C00
0C00
0C00
0C00
0C00
FC00
FC00
0000
0000
0000
0000
0000
0000
0000
0000
0000
0000
0000
0000
0000
ENDCHAR

STARTCHAR ⁄
ENCODING 218
SWIDTH 451 0
DWIDTH 16 0
BBX 16 32 0 -2
BITMAP
0000
0000
0000
0000
0000
0000
0000
0000
0000
0000
0000
0000
0000
0000
0000
0000
0000
0FFE
0FFE
0C00
0C00
0C00
0C00
0C00
0C00
0C00
0C00
0C00
0C00
0C00
0C00
0C00
ENDCHAR

STARTCHAR €
ENCODING 219
SWIDTH 451 0
DWIDTH 16 0
BBX 16 32 0 -2
BITMAP
FFFF
FFFF
FFFF
FFFF
FFFF
FFFF
FFFF
FFFF
FFFF
FFFF
FFFF
FFFF
FFFF
FFFF
FFFF
FFFF
FFFF
FFFF
FFFF
FFFF
FFFF
FFFF
FFFF
FFFF
FFFF
FFFF
FFFF
FFFF
FFFF
FFFF
FFFF
FFFF
ENDCHAR

STARTCHAR ‹
ENCODING 220
SWIDTH 451 0
DWIDTH 16 0
BBX 16 32 0 -2
BITMAP
0000
0000
0000
0000
0000
0000
0000
0000
0000
0000
0000
0000
0000
0000
0000
0000
FFFF
FFFF
FFFF
FFFF
FFFF
FFFF
FFFF
FFFF
FFFF
FFFF
FFFF
FFFF
FFFF
FFFF
FFFF
FFFF
ENDCHAR

STARTCHAR ›
ENCODING 221
SWIDTH 451 0
DWIDTH 16 0
BBX 16 32 0 -2
BITMAP
FF00
FF00
FF00
FF00
FF00
FF00
FF00
FF00
FF00
FF00
FF00
FF00
FF00
FF00
FF00
FF00
FF00
FF00
FF00
FF00
FF00
FF00
FF00
FF00
FF00
FF00
FF00
FF00
FF00
FF00
FF00
FF00
ENDCHAR

STARTCHAR ﬁ
ENCODING 222
SWIDTH 451 0
DWIDTH 16 0
BBX 16 32 0 -2
BITMAP
00FF
00FF
00FF
00FF
00FF
00FF
00FF
00FF
00FF
00FF
00FF
00FF
00FF
00FF
00FF
00FF
00FF
00FF
00FF
00FF
00FF
00FF
00FF
00FF
00FF
00FF
00FF
00FF
00FF
00FF
00FF
00FF
ENDCHAR

STARTCHAR ﬂ
ENCODING 223
SWIDTH 451 0
DWIDTH 16 0
BBX 16 32 0 -2
BITMAP
FFFF
FFFF
FFFF
FFFF
FFFF
FFFF
FFFF
FFFF
FFFF
FFFF
FFFF
FFFF
FFFF
FFFF
FFFF
FFFF
0000
0000
0000
0000
0000
0000
0000
0000
0000
0000
0000
0000
0000
0000
0000
0000
ENDCHAR

STARTCHAR ‡
ENCODING 224
SWIDTH 451 0
DWIDTH 16 0
BBX 16 32 0 -2
BITMAP
0000
0000
0000
0000
0000
0000
0000
0000
0000
0000
0000
0390
0C70
1830
1030
3030
3030
3030
3030
3030
3030
3030
3030
3030
1030
1830
0C70
039E
0000
0000
0000
0000
ENDCHAR

STARTCHAR ·
ENCODING 225
SWIDTH 451 0
DWIDTH 16 0
BBX 16 32 0 -2
BITMAP
0000
0000
0000
01C0
0630
0C10
1818
1818
3018
3018
3010
3030
3060
33C0
3030
3018
3008
300C
300C
300C
300C
300C
300C
3008
3818
3630
31C0
3000
3000
3000
3000
0000
ENDCHAR

STARTCHAR ‚
ENCODING 226
SWIDTH 451 0
DWIDTH 16 0
BBX 16 32 0 -2
BITMAP
0000
0000
0000
3FFE
1806
1806
1802
1802
1802
1802
1800
1800
1800
1800
1800
1800
1800
1800
1800
1800
1800
1800
1800
1800
1800
1800
1800
3E00
0000
0000
0000
0000
ENDCHAR

STARTCHAR „
ENCODING 227
SWIDTH 451 0
DWIDTH 16 0
BBX 16 32 0 -2
BITMAP
0000
0000
0000
0000
0000
0000
0000
0000
0000
0000
0000
1FFE
3FFC
2660
4660
0660
0660
0660
0660
0660
0660
0460
0460
0C60
0C62
1862
383C
3000
0000
0000
0000
0000
ENDCHAR

STARTCHAR ‰
ENCODING 228
SWIDTH 451 0
DWIDTH 16 0
BBX 16 32 0 -2
BITMAP
0000
0000
0000
7FFE
3002
3802
1C02
0C02
0E02
0700
0300
0380
01C0
00C0
00E0
0040
00C0
0180
0100
0300
0600
0402
0C02
1802
1002
3FFE
7FFE
0000
0000
0000
0000
0000
ENDCHAR

STARTCHAR Â
ENCODING 229
SWIDTH 451 0
DWIDTH 16 0
BBX 16 32 0 -2
BITMAP
0000
0000
0000
0000
0000
0000
0000
0000
0000
0000
0000
03FF
0C7F
1830
1010
3018
3018
3018
3018
3018
3018
3018
3018
1010
1830
0C60
0380
0000
0000
0000
0000
0000
ENDCHAR

STARTCHAR Ê
ENCODING 230
SWIDTH 451 0
DWIDTH 16 0
BBX 16 32 0 -2
BITMAP
0000
0000
0000
0000
0000
0000
0000
0000
0000
0000
0000
3030
3030
3030
3030
3030
3030
3030
3030
3030
3030
3030
3030
3030
3030
3838
3C6E
37C0
2000
E000
C000
0000
ENDCHAR

STARTCHAR Á
ENCODING 231
SWIDTH 451 0
DWIDTH 16 0
BBX 16 32 0 -2
BITMAP
0000
0000
0000
0000
0000
0000
0000
0000
0000
0000
0000
1C1C
227C
2340
0380
0300
0300
0300
0300
0300
0300
0300
0300
0300
0300
0300
0300
0000
0000
0000
0000
0000
ENDCHAR

STARTCHAR Ë
ENCODING 232
SWIDTH 451 0
DWIDTH 16 0
BBX 16 32 0 -2
BITMAP
0000
0000
0000
07E0
0180
0180
0180
03C0
0DB0
1998
318C
318C
6186
6186
6186
6186
6186
6186
6186
318C
318C
1998
0DB0
03C0
0180
0180
0180
07E0
0000
0000
0000
0000
ENDCHAR

STARTCHAR È
ENCODING 233
SWIDTH 451 0
DWIDTH 16 0
BBX 16 32 0 -2
BITMAP
0000
0000
0000
03C0
0C30
1818
300C
300C
6006
6006
6006
6006
6006
6006
7FFE
7FFE
6006
6006
6006
6006
6006
6006
6006
300C
300C
1818
0C30
03C0
0000
0000
0000
0000
ENDCHAR

STARTCHAR Í
ENCODING 234
SWIDTH 451 0
DWIDTH 16 0
BBX 16 32 0 -2
BITMAP
0000
0000
0000
03E0
0C18
180C
3006
3006
6003
6003
6003
6003
6003
6003
6003
3006
3006
180C
0C18
0730
0330
0330
2331
2331
2331
3F3F
3F3F
0000
0000
0000
0000
0000
ENDCHAR

STARTCHAR Î
ENCODING 235
SWIDTH 451 0
DWIDTH 16 0
BBX 16 32 0 -2
BITMAP
0000
0000
0700
18C0
1060
3030
3018
3008
1800
0C00
0700
01C0
0060
03F0
0E38
1818
180C
300C
300C
300C
300C
300C
300C
300C
1818
1818
0C30
03C0
0000
0000
0000
0000
ENDCHAR

STARTCHAR Ï
ENCODING 236
SWIDTH 451 0
DWIDTH 16 0
BBX 16 32 0 -2
BITMAP
0000
0000
0000
0000
0000
0000
0000
0000
0000
0000
1C38
6246
4182
C183
C183
C183
C183
C183
C183
C183
4182
6246
1C38
0000
0000
0000
0000
0000
0000
0000
0000
0000
ENDCHAR

STARTCHAR Ì
ENCODING 237
SWIDTH 451 0
DWIDTH 16 0
BBX 16 32 0 -2
BITMAP
0000
0000
0000
0030
0030
0030
0030
0030
0060
0060
0060
03E0
0C70
18F8
30CC
30CC
60C6
60C6
6186
6186
6186
6186
6186
230C
330C
1B18
0F30
07C0
0600
0600
0600
0600
ENDCHAR

STARTCHAR Ó
ENCODING 238
SWIDTH 451 0
DWIDTH 16 0
BBX 16 32 0 -2
BITMAP
0000
0000
0000
03FC
0E00
1800
3000
3000
6000
6000
6000
6000
6000
6000
7FFE
6000
6000
6000
6000
6000
6000
3000
3000
1800
0E00
03FE
0000
0000
0000
0000
0000
0000
ENDCHAR

STARTCHAR Ô
ENCODING 239
SWIDTH 451 0
DWIDTH 16 0
BBX 16 32 0 -2
BITMAP
0000
0000
0000
0000
0000
0000
0000
0000
0000
0000
03E0
0FF8
1C1C
180C
3006
3006
3006
3006
3006
3006
3006
3006
3006
3006
3006
3006
3006
0000
0000
0000
0000
0000
ENDCHAR

STARTCHAR 
ENCODING 240
SWIDTH 451 0
DWIDTH 16 0
BBX 16 32 0 -2
BITMAP
0000
0000
0000
0000
0000
0000
0000
0000
0000
7FFC
7FFC
0000
0000
0000
0000
0000
7FFC
7FFC
0000
0000
0000
0000
0000
7FFC
7FFC
0000
0000
0000
0000
0000
0000
0000
ENDCHAR

STARTCHAR Ò
ENCODING 241
SWIDTH 451 0
DWIDTH 16 0
BBX 16 32 0 -2
BITMAP
0000
0000
0000
0000
0180
0180
0180
0180
0180
0180
0180
0180
7FFE
7FFE
0180
0180
0180
0180
0180
0180
0180
0000
0000
0000
7FFE
7FFE
0000
0000
0000
0000
0000
0000
ENDCHAR

STARTCHAR Ú
ENCODING 242
SWIDTH 451 0
DWIDTH 16 0
BBX 16 32 0 -2
BITMAP
0000
0000
0000
0000
0000
6000
7800
1E00
0780
01E0
0078
001E
001E
0078
01E0
0780
1E00
7800
6000
0000
0000
0000
0000
0000
7FFE
7FFE
0000
0000
0000
0000
0000
0000
ENDCHAR

STARTCHAR Û
ENCODING 243
SWIDTH 451 0
DWIDTH 16 0
BBX 16 32 0 -2
BITMAP
0000
0000
0000
0000
0000
0006
001E
0078
01E0
0780
1E00
7800
7800
1E00
0780
01E0
0078
001E
0006
0000
0000
0000
0000
0000
7FFE
7FFE
0000
0000
0000
0000
0000
0000
ENDCHAR

STARTCHAR Ù
ENCODING 244
SWIDTH 451 0
DWIDTH 16 0
BBX 16 32 0 -2
BITMAP
0000
0000
003C
00C6
0187
018F
030F
0306
0300
0300
0300
0300
0300
0300
0300
0300
0300
0300
0300
0300
0300
0300
0300
0300
0300
0300
0300
0300
0300
0300
0300
0300
ENDCHAR

STARTCHAR ı
ENCODING 245
SWIDTH 451 0
DWIDTH 16 0
BBX 16 32 0 -2
BITMAP
0180
0180
0180
0180
0180
0180
0180
0180
0180
0180
0180
0180
0180
0180
0180
0180
0180
0180
0180
0180
0180
0180
0180
0180
6180
F100
F300
E300
6600
3C00
0000
0000
ENDCHAR

STARTCHAR ˆ
ENCODING 246
SWIDTH 451 0
DWIDTH 16 0
BBX 16 32 0 -2
BITMAP
0000
0000
0000
0000
0000
0000
0000
0180
03C0
0180
0000
0000
0000
0000
7FFE
7FFE
0000
0000
0000
0000
0000
0180
03C0
0180
0000
0000
0000
0000
0000
0000
0000
0000
ENDCHAR

STARTCHAR ˜
ENCODING 247
SWIDTH 451 0
DWIDTH 16 0
BBX 16 32 0 -2
BITMAP
0000
0000
0000
0000
0000
0000
0000
0000
0000
0000
1C02
3F02
23C4
40FC
4038
0000
0000
0000
1C02
3F02
23C4
40FC
4038
0000
0000
0000
0000
0000
0000
0000
0000
0000
ENDCHAR

STARTCHAR ¯
ENCODING 248
SWIDTH 451 0
DWIDTH 16 0
BBX 16 32 0 -2
BITMAP
0000
0000
0380
0C60
1830
1010
3018
3018
3018
3018
1030
1830
0C60
0380
0000
0000
0000
0000
0000
0000
0000
0000
0000
0000
0000
0000
0000
0000
0000
0000
0000
0000
ENDCHAR

STARTCHAR ˘
ENCODING 249
SWIDTH 451 0
DWIDTH 16 0
BBX 16 32 0 -2
BITMAP
0000
0000
0000
0000
0000
0000
0000
0000
0000
0000
0000
0000
0000
0000
0000
0000
0000
0000
3FF8
3FF8
3FF8
3FF8
3FF8
3FF8
3FF8
3FF8
3FF8
3FF8
3FF8
3FF8
3FF8
0000
ENDCHAR

STARTCHAR ˙
ENCODING 250
SWIDTH 451 0
DWIDTH 16 0
BBX 16 32 0 -2
BITMAP
0000
0000
0000
0000
0000
0000
0000
0000
0000
0000
0000
0000
0000
0000
0000
0000
0000
0000
0000
0000
0000
0000
0000
0000
0000
0000
0000
0000
3FF8
3FF8
0000
0000
ENDCHAR

STARTCHAR ˚
ENCODING 251
SWIDTH 451 0
DWIDTH 16 0
BBX 16 32 0 -2
BITMAP
0000
0000
0000
00FE
00FE
00C0
00C0
00C0
00C0
00C0
00C0
00C0
00C0
00C0
00C0
00C0
00C0
00C0
00C0
00C0
00C0
30C0
38C0
7CC0
4EC0
C7C0
83C0
01C0
00C0
0040
0000
0000
ENDCHAR

STARTCHAR ¸
ENCODING 252
SWIDTH 451 0
DWIDTH 16 0
BBX 16 32 0 -2
BITMAP
0000
0000
19F0
0E38
0C18
0C18
0C18
0C18
0C18
0C18
0C18
0C18
0C18
0C18
1E3C
0000
0000
0000
0000
0000
0000
0000
0000
0000
0000
0000
0000
0000
0000
0000
0000
0000
ENDCHAR

STARTCHAR ˝
ENCODING 253
SWIDTH 451 0
DWIDTH 16 0
BBX 16 32 0 -2
BITMAP
0000
0000
03C0
0420
0C30
0C30
0060
0060
00C0
0180
0310
0610
0FF0
0FF0
0000
0000
0000
0000
0000
0000
0000
0000
0000
0000
0000
0000
0000
0000
0000
0000
0000
0000
ENDCHAR

STARTCHAR ˛
ENCODING 254
SWIDTH 451 0
DWIDTH 16 0
BBX 16 32 0 -2
BITMAP
0000
0000
0000
0000
0000
0000
0000
0000
3FF8
3FF8
3FF8
3FF8
3FF8
3FF8
3FF8
3FF8
3FF8
3FF8
3FF8
3FF8
3FF8
3FF8
3FF8
3FF8
0000
0000
0000
0000
0000
0000
0000
0000
ENDCHAR

STARTCHAR ˇ
ENCODING 255
SWIDTH 451 0
DWIDTH 16 0
BBX 16 32 0 -2
BITMAP
0000
0000
0000
0000
0000
0000
0000
0000
0000
0000
0000
0000
0000
0000
0000
0000
0000
0000
0000
0000
0000
0000
0000
0000
0000
0000
0000
0000
0000
0000
0000
0000
ENDCHAR
ENDFONT
